<svg xmlns="http://www.w3.org/2000/svg" viewBox="0 0 500 500"><g id="freepik--background-complete--inject-7"><path d="M82.59,309.45l-13.12.28-6.66.11c-2.23.05-4.47,0-6.7.06h-.44v-.45l-.06-11.19v-.5h.5l13.24.07c4.42,0,8.83.11,13.24.16h.28v.27c0,1.9-.09,3.79-.13,5.66Zm0,0-.14-5.65c0-1.86-.11-3.7-.13-5.54l.27.28c-4.41,0-8.82.16-13.24.16l-13.24.06.5-.5,0,11.19-.45-.44c2.18,0,4.36,0,6.55.05l6.58.12Z" style="fill:#ebebeb"></path><path d="M67.82,323.56l-13.12.28L48,324c-2.23.05-4.47,0-6.7.06H40.9v-.45l-.06-11.19v-.5h.5l13.24.07c4.41,0,8.83.11,13.24.16h.28v.27c0,1.9-.08,3.79-.13,5.66Zm0,0-.14-5.65c-.05-1.86-.11-3.7-.13-5.54l.27.28c-4.41.05-8.83.16-13.24.16l-13.24.06.5-.5-.05,11.19-.45-.44c2.18,0,4.36,0,6.55.05l6.58.12Z" style="fill:#ebebeb"></path><path d="M328.6,183l-13.13.28-6.66.11c-2.22.05-4.46,0-6.69.06h-.44V183l-.05-11.19v-.5h.5l13.24.07c4.41,0,8.83.11,13.24.16h.28v.27c0,1.9-.08,3.79-.13,5.66Zm0,0-.14-5.65c0-1.87-.11-3.71-.13-5.54l.27.27c-4.41.06-8.83.16-13.24.17l-13.24.06.5-.5L302.56,183l-.44-.44c2.18,0,4.36,0,6.54,0l6.58.11Z" style="fill:#ebebeb"></path><path d="M313.83,197.13l-13.13.28-6.66.11c-2.22,0-4.46,0-6.69.06h-.45v-.45l0-11.19v-.5h.5l13.24.06c4.41,0,8.82.12,13.24.17h.27v.27c0,1.9-.09,3.79-.13,5.66Zm0,0-.14-5.65c-.05-1.87-.12-3.71-.14-5.54l.28.27c-4.42.06-8.83.16-13.24.17l-13.24.06.5-.5-.06,11.19-.44-.44c2.18,0,4.36,0,6.54.05l6.58.11Z" style="fill:#ebebeb"></path><path d="M299.11,183,286,183.3l-6.66.11c-2.23.05-4.46,0-6.7.06h-.44V183l-.06-11.19v-.5h.5l13.24.07c4.42,0,8.83.11,13.24.16h.28v.27c0,1.9-.09,3.79-.13,5.66Zm0,0-.14-5.65c0-1.87-.11-3.71-.13-5.54l.27.27c-4.41.06-8.82.16-13.24.17l-13.24.06.5-.5L273.08,183l-.45-.44c2.19,0,4.36,0,6.55,0l6.58.11Z" style="fill:#ebebeb"></path><path d="M458.66,323.56l-13.13.28-6.66.11c-2.22.05-4.46,0-6.69.06h-.45v-.45l-.05-11.19v-.5h.5l13.24.07c4.41,0,8.83.11,13.24.16h.27v.27c0,1.9-.08,3.79-.13,5.66Zm0,0-.14-5.65c0-1.86-.12-3.7-.13-5.54l.27.28c-4.41.05-8.83.16-13.24.16l-13.24.06.5-.5-.06,11.19-.44-.44c2.18,0,4.36,0,6.54.05l6.58.12Z" style="fill:#ebebeb"></path><path d="M443.89,49.88l-13.13.28-6.66.12c-2.22,0-4.46,0-6.69,0H417v-.45l0-11.18v-.51h.51l13.24.06c4.41,0,8.82.11,13.24.16h.27v.27c0,1.89-.09,3.78-.13,5.65Zm0,0-.14-5.65c-.05-1.86-.12-3.7-.14-5.53l.28.27c-4.42.05-8.83.16-13.24.16l-13.24.06.5-.49-.06,11.18-.44-.44c2.18,0,4.35,0,6.54.05l6.58.12Z" style="fill:#ebebeb"></path><path d="M458.66,64l-13.13.28-6.66.12c-2.22,0-4.46,0-6.69,0h-.45V64l-.05-11.18V52.3h.5l13.24.06c4.41,0,8.83.11,13.24.16h.27v.27c0,1.89-.08,3.78-.13,5.65Zm0,0-.14-5.65c0-1.86-.12-3.7-.13-5.53l.27.27c-4.41.05-8.83.16-13.24.16l-13.24.06.5-.49L432.62,64l-.44-.44c2.18,0,4.36,0,6.54.05l6.58.12Z" style="fill:#ebebeb"></path><path d="M82.59,49.88l-13.12.28-6.66.12c-2.23,0-4.47,0-6.7,0h-.44v-.45L55.61,38.7v-.51h.5l13.24.06c4.42,0,8.83.11,13.24.16h.28v.27c0,1.89-.09,3.78-.13,5.65Zm0,0-.14-5.65c0-1.86-.11-3.7-.13-5.53l.27.27c-4.41.05-8.82.16-13.24.16l-13.24.06.5-.49,0,11.18-.45-.44c2.18,0,4.36,0,6.55.05l6.58.12Z" style="fill:#ebebeb"></path><rect x="38.37" y="227.84" width="423.27" height="17.26" style="fill:#ebebeb"></rect><rect x="38.37" y="251.62" width="423.27" height="8.79" style="fill:#ebebeb"></rect></g><g id="freepik--Shadow--inject-7"><ellipse cx="250" cy="445.15" rx="188.49" ry="13.74" style="fill:#ebebeb"></ellipse></g><g id="freepik--Floor--inject-7"><polygon points="38.37 367.14 91.28 366.9 144.18 366.81 250 366.64 355.82 366.81 408.73 366.9 461.63 367.14 408.73 367.39 355.82 367.48 250 367.64 144.18 367.47 91.28 367.38 38.37 367.14" style="fill:#263238"></polygon></g><g id="freepik--checkout-machine--inject-7"><rect x="62.59" y="300.25" width="134.32" height="10.02" style="fill:#37474f"></rect><polygon points="196.91 300.25 62.59 300.25 68.91 295.24 184.29 295.24 196.91 300.25" style="fill:#263238"></polygon><polygon points="136.44 350.01 75.35 310.26 136.44 310.26 136.44 350.01" style="fill:#455a64"></polygon><polygon points="136.44 350.01 131.95 310.26 136.44 310.26 136.44 350.01" style="fill:#37474f"></polygon><rect x="136.44" y="188.09" width="109.07" height="253.63" style="fill:#455a64"></rect><rect x="140.04" y="441.72" width="101.86" height="6.69" style="fill:#37474f"></rect><rect x="123.81" y="264.75" width="134.32" height="10.02" style="fill:#37474f"></rect><polygon points="258.13 264.75 123.81 264.75 136.44 259.74 245.51 259.74 258.13 264.75" style="fill:#263238"></polygon><polygon points="206.07 263.48 139.87 263.48 146.09 261.01 199.84 261.01 206.07 263.48" style="fill:#dbdbdb"></polygon><rect x="203.45" y="232.36" width="30.95" height="17.72" style="fill:#263238"></rect><rect x="134.06" y="86.95" width="4.76" height="101.14" style="fill:#263238"></rect><rect x="119.02" y="43.66" width="34.85" height="43.29" style="fill:#5770FD"></rect><path d="M148.21,67.47a9.54,9.54,0,0,1,2.85,6.83,9.69,9.69,0,0,1-16.56,6.87,2.21,2.21,0,0,1,3.13-3.12,5.2,5.2,0,0,0,3.71,1.52,5.4,5.4,0,0,0,3.75-1.52,5.25,5.25,0,0,0,1.56-3.75,5.1,5.1,0,0,0-1.56-3.71A5.28,5.28,0,0,0,141.38,69a2,2,0,0,1-1.61-.7s0,0,0,0a2.22,2.22,0,0,1-.08-3.13l4-4.06h-6.33a2.21,2.21,0,0,1,0-4.41h11.52a2.19,2.19,0,0,1,2.23,2.19,2.4,2.4,0,0,1-.27,1,3.63,3.63,0,0,1-.39.55l-4.92,5.07A9,9,0,0,1,148.21,67.47Z" style="fill:#263238"></path><rect x="245.51" y="202.27" width="180.06" height="111.2" style="fill:#455a64"></rect><polygon points="245.51 313.47 245.51 202.27 249.68 202.27 247.21 313.47 245.51 313.47" style="fill:#37474f"></polygon><rect x="245.51" y="213.01" width="184.18" height="4.3" style="fill:#ebebeb"></rect><rect x="122.09" y="141.24" width="101.76" height="82.26" style="fill:#37474f"></rect><rect x="128.71" y="148.04" width="88.51" height="68.66" style="fill:#fff"></rect><rect x="133.97" y="152.44" width="36.69" height="59.48" style="fill:#ebebeb"></rect><rect x="175.28" y="152.44" width="36.69" height="59.48" style="fill:#ebebeb"></rect><rect x="181.7" y="201.32" width="23.85" height="5.65" style="fill:#5770FD"></rect><rect x="140.39" y="158.09" width="23.85" height="5.65" style="fill:#a6a6a6"></rect><rect x="140.39" y="167.66" width="13.48" height="0.84" style="fill:#c7c7c7"></rect><rect x="140.39" y="170.02" width="13.48" height="0.84" style="fill:#c7c7c7"></rect><rect x="140.39" y="172.37" width="13.48" height="0.84" style="fill:#c7c7c7"></rect><rect x="140.39" y="174.73" width="13.48" height="0.84" style="fill:#c7c7c7"></rect><rect x="140.39" y="177.09" width="13.48" height="0.84" style="fill:#c7c7c7"></rect><rect x="140.39" y="179.44" width="13.48" height="0.84" style="fill:#c7c7c7"></rect><rect x="140.39" y="181.8" width="13.48" height="0.84" style="fill:#c7c7c7"></rect><rect x="140.39" y="184.16" width="13.48" height="0.84" style="fill:#c7c7c7"></rect><rect x="140.39" y="186.51" width="13.48" height="0.84" style="fill:#c7c7c7"></rect><rect x="140.39" y="188.87" width="13.48" height="0.84" style="fill:#c7c7c7"></rect><rect x="140.39" y="191.23" width="13.48" height="0.84" style="fill:#c7c7c7"></rect><rect x="140.39" y="193.58" width="13.48" height="0.84" style="fill:#c7c7c7"></rect><rect x="140.39" y="195.94" width="13.48" height="0.84" style="fill:#c7c7c7"></rect><rect x="140.39" y="198.3" width="13.48" height="0.84" style="fill:#c7c7c7"></rect><rect x="140.39" y="200.65" width="13.48" height="0.84" style="fill:#c7c7c7"></rect><rect x="140.39" y="203.01" width="13.48" height="0.84" style="fill:#c7c7c7"></rect><rect x="140.39" y="205.37" width="13.48" height="0.84" style="fill:#c7c7c7"></rect><rect x="160.03" y="167.66" width="4.2" height="0.84" style="fill:#c7c7c7"></rect><rect x="160.03" y="170.02" width="4.2" height="0.84" style="fill:#c7c7c7"></rect><rect x="160.03" y="172.37" width="4.2" height="0.84" style="fill:#c7c7c7"></rect><rect x="160.03" y="174.73" width="4.2" height="0.84" style="fill:#c7c7c7"></rect><rect x="160.03" y="177.09" width="4.2" height="0.84" style="fill:#c7c7c7"></rect><rect x="160.03" y="179.44" width="4.2" height="0.84" style="fill:#c7c7c7"></rect><rect x="160.03" y="181.8" width="4.2" height="0.84" style="fill:#c7c7c7"></rect><rect x="160.03" y="184.16" width="4.2" height="0.84" style="fill:#c7c7c7"></rect><rect x="160.03" y="186.51" width="4.2" height="0.84" style="fill:#c7c7c7"></rect><rect x="160.03" y="188.87" width="4.2" height="0.84" style="fill:#c7c7c7"></rect><rect x="160.03" y="191.23" width="4.2" height="0.84" style="fill:#c7c7c7"></rect><rect x="160.03" y="193.58" width="4.2" height="0.84" style="fill:#c7c7c7"></rect><rect x="160.03" y="195.94" width="4.2" height="0.84" style="fill:#c7c7c7"></rect><rect x="160.03" y="198.3" width="4.2" height="0.84" style="fill:#c7c7c7"></rect><rect x="160.03" y="200.65" width="4.2" height="0.84" style="fill:#c7c7c7"></rect><rect x="160.03" y="203.01" width="4.2" height="0.84" style="fill:#c7c7c7"></rect><rect x="160.03" y="205.37" width="4.2" height="0.84" style="fill:#c7c7c7"></rect><rect x="181.7" y="158.09" width="13.48" height="0.84" style="fill:#c7c7c7"></rect><rect x="181.7" y="160.45" width="13.48" height="0.84" style="fill:#c7c7c7"></rect><rect x="181.7" y="162.8" width="13.48" height="0.84" style="fill:#c7c7c7"></rect><rect x="181.7" y="165.16" width="13.48" height="0.84" style="fill:#c7c7c7"></rect><rect x="181.7" y="167.52" width="13.48" height="0.84" style="fill:#c7c7c7"></rect><rect x="181.7" y="169.87" width="13.48" height="0.84" style="fill:#c7c7c7"></rect><rect x="181.7" y="172.23" width="13.48" height="0.84" style="fill:#c7c7c7"></rect><rect x="181.7" y="174.59" width="13.48" height="0.84" style="fill:#c7c7c7"></rect><rect x="181.7" y="176.94" width="13.48" height="0.84" style="fill:#c7c7c7"></rect><rect x="181.7" y="179.3" width="13.48" height="0.84" style="fill:#c7c7c7"></rect><rect x="201.35" y="158.09" width="4.2" height="0.84" style="fill:#c7c7c7"></rect><rect x="201.35" y="160.45" width="4.2" height="0.84" style="fill:#c7c7c7"></rect><rect x="201.35" y="162.8" width="4.2" height="0.84" style="fill:#c7c7c7"></rect><rect x="201.35" y="165.16" width="4.2" height="0.84" style="fill:#c7c7c7"></rect><rect x="201.35" y="167.52" width="4.2" height="0.84" style="fill:#c7c7c7"></rect><rect x="201.35" y="169.87" width="4.2" height="0.84" style="fill:#c7c7c7"></rect><rect x="201.35" y="172.23" width="4.2" height="0.84" style="fill:#c7c7c7"></rect><rect x="201.35" y="174.59" width="4.2" height="0.84" style="fill:#c7c7c7"></rect><rect x="201.35" y="176.94" width="4.2" height="0.84" style="fill:#c7c7c7"></rect><rect x="201.35" y="179.3" width="4.2" height="0.84" style="fill:#c7c7c7"></rect><rect x="245.51" y="321.94" width="182.12" height="119.78" style="fill:#455a64"></rect><rect x="249.11" y="441.72" width="174.92" height="6.69" style="fill:#37474f"></rect><rect x="245.51" y="318.48" width="192.69" height="10.02" style="fill:#37474f"></rect><polygon points="438.2 318.48 245.51 318.48 245.51 313.47 425.57 313.47 438.2 318.48" style="fill:#263238"></polygon><polygon points="245.51 441.72 245.51 328.5 249.68 328.5 247.21 441.72 245.51 441.72" style="fill:#37474f"></polygon><rect x="230.09" y="151.91" width="27.24" height="53.47" style="fill:#37474f"></rect><rect x="257.33" y="155.68" width="3.6" height="42.24" style="fill:#455a64"></rect><rect x="257.33" y="155.68" width="0.96" height="42.24" style="fill:#263238"></rect><rect x="233.55" y="184.58" width="5.83" height="2.6" style="fill:#ebebeb"></rect><rect x="240.79" y="184.58" width="5.83" height="2.6" style="fill:#ebebeb"></rect><rect x="248.02" y="184.58" width="5.83" height="2.6" style="fill:#ebebeb"></rect><rect x="233.55" y="188.27" width="5.83" height="2.6" style="fill:#ebebeb"></rect><rect x="240.79" y="188.27" width="5.83" height="2.6" style="fill:#ebebeb"></rect><rect x="248.02" y="188.27" width="5.83" height="2.6" style="fill:#ebebeb"></rect><rect x="233.55" y="191.96" width="5.83" height="2.6" style="fill:#ebebeb"></rect><rect x="240.79" y="191.96" width="5.83" height="2.6" style="fill:#ebebeb"></rect><rect x="248.02" y="191.96" width="5.83" height="2.6" style="fill:#ebebeb"></rect><rect x="233.55" y="195.65" width="5.83" height="2.6" style="fill:#ebebeb"></rect><rect x="240.79" y="195.65" width="5.83" height="2.6" style="fill:#ebebeb"></rect><rect x="248.02" y="195.65" width="5.83" height="2.6" style="fill:#ebebeb"></rect><rect x="233.55" y="199.34" width="5.83" height="2.6" style="fill:#263238"></rect><rect x="240.79" y="199.34" width="5.83" height="2.6" style="fill:#5770FD"></rect><rect x="248.02" y="199.34" width="5.83" height="2.6" style="fill:#a6a6a6"></rect><rect x="231.55" y="148.89" width="24.31" height="34.15" style="fill:#263238"></rect><rect x="233.08" y="159.27" width="21.25" height="16.52" style="fill:#fff"></rect><rect x="235.5" y="142.57" width="16.41" height="12.36" style="fill:#ebebeb"></rect><rect x="240.34" y="144.17" width="6.73" height="0.25" style="fill:#c7c7c7"></rect><rect x="241.98" y="144.89" width="3.46" height="0.25" style="fill:#c7c7c7"></rect><rect x="237.06" y="147.07" width="6.73" height="0.25" style="fill:#c7c7c7"></rect><rect x="237.06" y="147.8" width="8.37" height="0.25" style="fill:#c7c7c7"></rect><rect x="237.06" y="148.53" width="4.36" height="0.25" style="fill:#c7c7c7"></rect><rect x="237.06" y="149.25" width="7.46" height="0.25" style="fill:#c7c7c7"></rect><rect x="237.06" y="149.98" width="8.22" height="0.25" style="fill:#c7c7c7"></rect><rect x="237.06" y="150.7" width="7.53" height="0.25" style="fill:#c7c7c7"></rect><rect x="237.06" y="151.43" width="8.37" height="0.25" style="fill:#c7c7c7"></rect><rect x="237.06" y="152.16" width="7.73" height="0.25" style="fill:#c7c7c7"></rect><rect x="237.06" y="152.88" width="6.32" height="0.25" style="fill:#c7c7c7"></rect><rect x="237.06" y="153.61" width="8.3" height="0.25" style="fill:#c7c7c7"></rect><rect x="237.06" y="154.33" width="7.82" height="0.25" style="fill:#c7c7c7"></rect><rect x="247.81" y="147.8" width="2.54" height="0.25" style="fill:#c7c7c7"></rect><rect x="247.81" y="148.53" width="2.54" height="0.25" style="fill:#c7c7c7"></rect><rect x="247.81" y="149.25" width="2.54" height="0.25" style="fill:#c7c7c7"></rect><rect x="247.81" y="149.98" width="2.54" height="0.25" style="fill:#c7c7c7"></rect><rect x="247.81" y="150.7" width="2.54" height="0.25" style="fill:#c7c7c7"></rect><rect x="247.81" y="151.43" width="2.54" height="0.25" style="fill:#c7c7c7"></rect><rect x="247.81" y="152.16" width="2.54" height="0.25" style="fill:#c7c7c7"></rect><rect x="247.81" y="152.88" width="2.54" height="0.25" style="fill:#c7c7c7"></rect><rect x="247.81" y="153.61" width="2.54" height="0.25" style="fill:#c7c7c7"></rect><rect x="247.81" y="154.33" width="2.54" height="0.25" style="fill:#c7c7c7"></rect><path d="M245.91,179.41a2.33,2.33,0,1,1-2.33-2.33A2.33,2.33,0,0,1,245.91,179.41Z" style="fill:#a6a6a6"></path><rect x="233.66" y="177.08" width="5.43" height="1.8" style="fill:#a6a6a6"></rect><rect x="233.66" y="179.94" width="5.43" height="1.8" style="fill:#a6a6a6"></rect><rect x="248.43" y="177.08" width="5.43" height="1.8" style="fill:#a6a6a6"></rect><rect x="248.43" y="179.94" width="5.43" height="1.8" style="fill:#a6a6a6"></rect><path d="M248.39,167.54a4.69,4.69,0,1,1-4.68-4.69A4.69,4.69,0,0,1,248.39,167.54Z" style="fill:#5770FD"></path><polygon points="243.02 170.9 240.58 168.43 241.4 167.62 242.83 169.06 245.79 164.41 246.76 165.03 243.02 170.9" style="fill:#263238"></polygon><rect x="249.11" y="441.72" width="174.92" height="6.69" style="fill:#37474f"></rect></g><g id="freepik--Bottle--inject-7"><path d="M155.18,245.09v17.72H181.7V245.09c0-8.44-6.88-14.37-6.88-16.14s4.3-5.43,4.3-10.09-5.64-8.45-5.64-9.33v-5.34H163.4v5.34c0,.88-5.62,4.67-5.62,9.33s4.29,8.31,4.29,10.09S155.18,236.65,155.18,245.09Z" style="fill:#5770FD"></path><rect x="162" y="201.84" width="13.19" height="4.7" transform="translate(337.18 408.38) rotate(180)" style="fill:#37474f"></rect><rect x="155.18" y="244.94" width="26.48" height="11.79" transform="translate(336.85 501.67) rotate(180)" style="fill:#37474f"></rect></g><g id="freepik--shopping-bags--inject-7"><polygon points="324.1 217.57 324.1 314.2 261.4 314.2 261.4 217.57 277.3 217.57 277.3 239.61 308.2 239.61 308.2 217.57 324.1 217.57" style="fill:#5770FD"></polygon><polygon points="324.1 217.57 324.1 314.2 261.4 314.2 261.4 217.57 277.3 217.57 277.3 239.61 308.2 239.61 308.2 217.57 324.1 217.57" style="opacity:0.1"></polygon><path d="M281.37,263v5.14a.5.5,0,0,1-.49.48.48.48,0,0,1-.48-.48v-3.67l-1.25,1.74a.49.49,0,0,1-.39.2h0a.48.48,0,0,1-.4-.2l-1.25-1.74v3.67a.49.49,0,0,1-.48.48.48.48,0,0,1-.48-.48V263a.48.48,0,0,1,.48-.48h0a.46.46,0,0,1,.38.2l1.74,2.4,1.73-2.4a.49.49,0,0,1,.39-.2h0A.5.5,0,0,1,281.37,263Z" style="fill:#fff"></path><path d="M286,267.19h-2.12l-.43,1.13a.5.5,0,0,1-.45.31.51.51,0,0,1-.17,0,.49.49,0,0,1-.28-.63l1.92-5.13a.51.51,0,0,1,.93,0l1.92,5.13a.49.49,0,0,1-.29.63.38.38,0,0,1-.16,0,.49.49,0,0,1-.45-.31Zm-.36-1-.71-1.87-.7,1.87Z" style="fill:#fff"></path><path d="M292.58,267.91a.47.47,0,0,1-.3.6.77.77,0,0,1-.2,0h0a.69.69,0,0,1-.34-.09.84.84,0,0,1-.28-.31,2.37,2.37,0,0,1-.19-1.05.67.67,0,0,0-.1-.37.78.78,0,0,0-.26-.25,1.75,1.75,0,0,0-.49-.21h-1v1.89a.49.49,0,0,1-.49.48.47.47,0,0,1-.47-.48V263a.47.47,0,0,1,.47-.48h1.56a1.87,1.87,0,0,1,1.87,1.87,1.84,1.84,0,0,1-.68,1.43,1.31,1.31,0,0,1,.3.32,1.64,1.64,0,0,1,.29.94,2,2,0,0,0,0,.52A.45.45,0,0,1,292.58,267.91Zm-1.22-3.51a.9.9,0,0,0-.9-.9h-1.07v1.79h1.07A.89.89,0,0,0,291.36,264.4Z" style="fill:#fff"></path><path d="M294,268.15v-5.1a.48.48,0,0,1,.47-.48.49.49,0,0,1,.48.48v2.5l2.83-2.83a.48.48,0,0,1,.68,0,.5.5,0,0,1,0,.68l-1.92,1.91,1.93,2.53a.46.46,0,0,1-.07.67.42.42,0,0,1-.3.12.47.47,0,0,1-.36-.18L295.86,266l-.91.92v1.24a.48.48,0,0,1-.48.48A.47.47,0,0,1,294,268.15Z" style="fill:#fff"></path><path d="M300.23,268.15V263a.47.47,0,0,1,.48-.48h2.85a.49.49,0,0,1,.48.48.5.5,0,0,1-.48.49h-2.37v1.59h2a.49.49,0,0,1,0,1h-2v1.6h2.37a.49.49,0,0,1,0,1h-2.85A.48.48,0,0,1,300.23,268.15Z" style="fill:#fff"></path><path d="M309.13,263.5h-1.39v4.65a.47.47,0,0,1-.48.48.48.48,0,0,1-.48-.48V263.5h-1.37a.49.49,0,0,1-.48-.49.47.47,0,0,1,.48-.48h3.72a.48.48,0,0,1,.48.48A.5.5,0,0,1,309.13,263.5Z" style="fill:#fff"></path><path d="M276.24,258.59a.55.55,0,0,1,.77-.07,3.44,3.44,0,0,0,2,.81,2.27,2.27,0,0,0,1.32-.39,1,1,0,0,0,.46-.76.65.65,0,0,0-.1-.34,1,1,0,0,0-.31-.31,4.4,4.4,0,0,0-1.45-.5h0a5.41,5.41,0,0,1-1.36-.41,2.25,2.25,0,0,1-1-.82,1.63,1.63,0,0,1-.24-.87,1.94,1.94,0,0,1,.84-1.54,3.12,3.12,0,0,1,1.82-.56,4.1,4.1,0,0,1,2.3.85.54.54,0,0,1-.6.9,3.11,3.11,0,0,0-1.7-.67,2,2,0,0,0-1.18.36.84.84,0,0,0-.4.66.48.48,0,0,0,.08.3.91.91,0,0,0,.28.27,3.68,3.68,0,0,0,1.32.47h0a6.09,6.09,0,0,1,1.46.44,2.43,2.43,0,0,1,1.05.87,1.71,1.71,0,0,1,.25.9,2,2,0,0,1-.9,1.63,3.33,3.33,0,0,1-2,.61,4.5,4.5,0,0,1-2.69-1.06A.55.55,0,0,1,276.24,258.59Z" style="fill:#fff"></path><path d="M286.56,260.43a3,3,0,0,1-3.05-3.05v-3.76a.58.58,0,0,1,.58-.58.59.59,0,0,1,.59.58v3.76a1.88,1.88,0,0,0,3.76,0v-3.76A.58.58,0,0,1,289,253a.57.57,0,0,1,.58.58v3.76A3,3,0,0,1,286.56,260.43Z" style="fill:#fff"></path><path d="M294.55,257.56h-1.3v2.29a.59.59,0,0,1-1.17,0v-6.23a.59.59,0,0,1,.58-.58h1.89a2.26,2.26,0,1,1,0,4.52Zm-1.3-1.17h1.3a1.09,1.09,0,1,0,0-2.18h-1.3Z" style="fill:#fff"></path><path d="M298.23,259.85v-6.23a.57.57,0,0,1,.58-.58h3.45a.59.59,0,0,1,0,1.17H299.4v1.93h2.46a.59.59,0,0,1,0,1.18H299.4v1.94h2.86a.59.59,0,0,1,0,1.17h-3.45A.58.58,0,0,1,298.23,259.85Z" style="fill:#fff"></path><path d="M309.57,259.55a.58.58,0,0,1-.37.74.9.9,0,0,1-.23,0h0a.75.75,0,0,1-.41-.12,1.07,1.07,0,0,1-.34-.36,3,3,0,0,1-.22-1.27.89.89,0,0,0-.12-.45,1.06,1.06,0,0,0-.32-.31,1.92,1.92,0,0,0-.59-.25h-1.25v2.29a.59.59,0,0,1-1.17,0v-6.23a.58.58,0,0,1,.58-.58H307a2.26,2.26,0,0,1,1.44,4,1.69,1.69,0,0,1,.36.39,2,2,0,0,1,.35,1.14,2.73,2.73,0,0,0,0,.62A.58.58,0,0,1,309.57,259.55Zm-1.47-4.24a1.09,1.09,0,0,0-1.09-1.1h-1.3v2.18H307A1.09,1.09,0,0,0,308.1,255.31Z" style="fill:#fff"></path><polygon points="328.42 218.61 328.42 315.24 265.72 315.24 265.72 218.61 281.62 218.61 281.62 240.65 312.53 240.65 312.53 218.61 328.42 218.61" style="fill:#5770FD"></polygon><polygon points="328.42 218.61 328.42 315.24 265.72 315.24 265.72 218.61 281.62 218.61 281.62 240.65 312.53 240.65 312.53 218.61 328.42 218.61" style="fill:#fff;opacity:0.5"></polygon><path d="M285.69,264.05v5.14a.49.49,0,0,1-.49.48.48.48,0,0,1-.48-.48v-3.67l-1.25,1.74a.47.47,0,0,1-.39.2h0a.49.49,0,0,1-.4-.2l-1.25-1.74v3.67a.48.48,0,0,1-.48.48.49.49,0,0,1-.48-.48v-5.14a.49.49,0,0,1,.48-.48h0a.49.49,0,0,1,.39.2l1.73,2.4,1.73-2.4a.49.49,0,0,1,.4-.2h0A.5.5,0,0,1,285.69,264.05Z" style="fill:#fff"></path><path d="M290.35,268.23h-2.12l-.43,1.13a.49.49,0,0,1-.45.31.41.41,0,0,1-.16,0,.49.49,0,0,1-.29-.63l1.92-5.13a.48.48,0,0,1,.46-.3.48.48,0,0,1,.47.3l1.92,5.13a.49.49,0,0,1-.29.63.38.38,0,0,1-.16,0,.49.49,0,0,1-.45-.31Zm-.36-1-.71-1.87-.7,1.87Z" style="fill:#fff"></path><path d="M296.9,269a.47.47,0,0,1-.3.6.75.75,0,0,1-.19,0h0a.69.69,0,0,1-.34-.09.84.84,0,0,1-.28-.31,2.39,2.39,0,0,1-.18-1.05.77.77,0,0,0-.11-.37.78.78,0,0,0-.26-.25,1.75,1.75,0,0,0-.49-.21h-1v1.89a.48.48,0,1,1-1,0v-5.14a.47.47,0,0,1,.48-.48h1.56a1.87,1.87,0,0,1,1.86,1.87,1.84,1.84,0,0,1-.68,1.43,1.58,1.58,0,0,1,.31.32,1.71,1.71,0,0,1,.28.94,2,2,0,0,0,0,.52A.45.45,0,0,1,296.9,269Zm-1.22-3.51a.89.89,0,0,0-.89-.9h-1.08v1.79h1.08A.89.89,0,0,0,295.68,265.44Z" style="fill:#fff"></path><path d="M298.32,269.19v-5.1a.48.48,0,0,1,1,0v2.5l2.82-2.83a.48.48,0,0,1,.68,0,.5.5,0,0,1,0,.68l-1.92,1.91,1.94,2.53a.48.48,0,0,1-.07.67.45.45,0,0,1-.67-.06L300.18,267l-.9.92v1.24a.48.48,0,1,1-1,0Z" style="fill:#fff"></path><path d="M304.55,269.19v-5.14a.47.47,0,0,1,.48-.48h2.85a.49.49,0,0,1,.48.48.5.5,0,0,1-.48.49h-2.36v1.59h2a.49.49,0,0,1,0,1h-2v1.6h2.36a.49.49,0,0,1,0,1H305A.48.48,0,0,1,304.55,269.19Z" style="fill:#fff"></path><path d="M313.45,264.54h-1.39v4.65a.47.47,0,0,1-.48.48.48.48,0,0,1-.48-.48v-4.65h-1.37a.49.49,0,0,1-.48-.49.47.47,0,0,1,.48-.48h3.72a.48.48,0,0,1,.48.48A.5.5,0,0,1,313.45,264.54Z" style="fill:#fff"></path><path d="M280.56,259.63a.55.55,0,0,1,.77-.07,3.47,3.47,0,0,0,2,.81,2.26,2.26,0,0,0,1.31-.39,1,1,0,0,0,.46-.76.57.57,0,0,0-.1-.34,1,1,0,0,0-.31-.31,4.4,4.4,0,0,0-1.45-.5h0a5.54,5.54,0,0,1-1.36-.41,2.25,2.25,0,0,1-1-.82,1.63,1.63,0,0,1-.24-.87,2,2,0,0,1,.84-1.54,3.12,3.12,0,0,1,1.82-.56,4.08,4.08,0,0,1,2.3.85.54.54,0,0,1-.6.9,3.08,3.08,0,0,0-1.7-.67,2,2,0,0,0-1.18.36.84.84,0,0,0-.4.66.48.48,0,0,0,.08.3.91.91,0,0,0,.28.27,3.76,3.76,0,0,0,1.32.47h0a6.09,6.09,0,0,1,1.46.44,2.43,2.43,0,0,1,1.05.87,1.71,1.71,0,0,1,.25.9,2,2,0,0,1-.9,1.63,3.3,3.3,0,0,1-1.95.61,4.51,4.51,0,0,1-2.7-1.06A.55.55,0,0,1,280.56,259.63Z" style="fill:#fff"></path><path d="M290.88,261.47a3,3,0,0,1-3-3.05v-3.76a.57.57,0,0,1,.58-.58.6.6,0,0,1,.59.58v3.76a1.88,1.88,0,1,0,3.75,0v-3.76a.58.58,0,0,1,.59-.58.57.57,0,0,1,.58.58v3.76A3,3,0,0,1,290.88,261.47Z" style="fill:#fff"></path><path d="M298.87,258.6h-1.29v2.29a.6.6,0,0,1-.6.58.59.59,0,0,1-.57-.58v-6.23a.58.58,0,0,1,.57-.58h1.89a2.26,2.26,0,1,1,0,4.52Zm-1.29-1.17h1.29a1.09,1.09,0,1,0,0-2.18h-1.29Z" style="fill:#fff"></path><path d="M302.55,260.89v-6.23a.57.57,0,0,1,.58-.58h3.45a.59.59,0,0,1,0,1.17h-2.86v1.93h2.46a.6.6,0,0,1,.58.59.6.6,0,0,1-.58.59h-2.46v1.94h2.86a.59.59,0,0,1,0,1.17h-3.42s0,0,0,0h0A.58.58,0,0,1,302.55,260.89Z" style="fill:#fff"></path><path d="M313.9,260.59a.59.59,0,0,1-.37.74,1.09,1.09,0,0,1-.24,0h0a.81.81,0,0,1-.41-.11,1.34,1.34,0,0,1-.34-.37,3,3,0,0,1-.22-1.27.89.89,0,0,0-.12-.45,1.06,1.06,0,0,0-.32-.31,1.92,1.92,0,0,0-.59-.25H310v2.29a.6.6,0,0,1-.59.58.58.58,0,0,1-.58-.58v-6.23a.57.57,0,0,1,.58-.58h1.88a2.26,2.26,0,0,1,1.44,4,2,2,0,0,1,.37.39,2,2,0,0,1,.34,1.14,2.1,2.1,0,0,0,0,.62A.6.6,0,0,1,313.9,260.59Zm-1.48-4.24a1.09,1.09,0,0,0-1.09-1.1H310v2.18h1.29A1.09,1.09,0,0,0,312.42,256.35Z" style="fill:#fff"></path><polygon points="398.3 217.57 398.3 314.2 335.6 314.2 335.6 217.57 351.5 217.57 351.5 239.61 382.41 239.61 382.41 217.57 398.3 217.57" style="fill:#5770FD"></polygon><polygon points="398.3 217.57 398.3 314.2 335.6 314.2 335.6 217.57 351.5 217.57 351.5 239.61 382.41 239.61 382.41 217.57 398.3 217.57" style="opacity:0.1"></polygon><path d="M355.57,263v5.14a.49.49,0,0,1-.48.48.48.48,0,0,1-.48-.48v-3.67l-1.26,1.74a.46.46,0,0,1-.39.2h0a.51.51,0,0,1-.4-.2l-1.24-1.74v3.67a.49.49,0,0,1-1,0V263a.49.49,0,0,1,.48-.48h0a.48.48,0,0,1,.38.2l1.73,2.4,1.74-2.4a.46.46,0,0,1,.39-.2h0A.49.49,0,0,1,355.57,263Z" style="fill:#fff"></path><path d="M360.23,267.19h-2.12l-.42,1.13a.51.51,0,0,1-.46.31.41.41,0,0,1-.16,0,.49.49,0,0,1-.29-.63l1.93-5.13a.5.5,0,0,1,.92,0l1.92,5.13a.49.49,0,0,1-.28.63.47.47,0,0,1-.17,0,.47.47,0,0,1-.44-.31Zm-.36-1-.7-1.87-.71,1.87Z" style="fill:#fff"></path><path d="M366.78,267.91a.47.47,0,0,1-.3.6.61.61,0,0,1-.19,0h0a.69.69,0,0,1-.34-.09.93.93,0,0,1-.28-.31,2.39,2.39,0,0,1-.18-1.05.77.77,0,0,0-.11-.37.7.7,0,0,0-.26-.25,1.75,1.75,0,0,0-.49-.21h-1v1.89a.49.49,0,0,1-.49.48.48.48,0,0,1-.48-.48V263a.47.47,0,0,1,.48-.48h1.56a1.87,1.87,0,0,1,1.86,1.87,1.84,1.84,0,0,1-.68,1.43,1.35,1.35,0,0,1,.31.32,1.71,1.71,0,0,1,.29.94,2.1,2.1,0,0,0,0,.52A.45.45,0,0,1,366.78,267.91Zm-1.21-3.51a.9.9,0,0,0-.9-.9H363.6v1.79h1.07A.9.9,0,0,0,365.57,264.4Z" style="fill:#fff"></path><path d="M368.2,268.15v-5.1a.48.48,0,0,1,1,0v2.5l2.82-2.83a.48.48,0,0,1,.68,0,.5.5,0,0,1,0,.68l-1.92,1.91,1.94,2.53a.47.47,0,0,1-.07.67.45.45,0,0,1-.31.12.44.44,0,0,1-.35-.18L370.06,266l-.9.92v1.24a.48.48,0,0,1-1,0Z" style="fill:#fff"></path><path d="M374.43,268.15V263a.47.47,0,0,1,.48-.48h2.85a.49.49,0,0,1,.48.48.5.5,0,0,1-.48.49H375.4v1.59h2a.49.49,0,0,1,0,1h-2v1.6h2.36a.49.49,0,0,1,0,1h-2.85A.48.48,0,0,1,374.43,268.15Z" style="fill:#fff"></path><path d="M383.33,263.5h-1.39v4.65a.47.47,0,0,1-.47.48.47.47,0,0,1-.48-.48V263.5h-1.38a.49.49,0,0,1-.48-.49.47.47,0,0,1,.48-.48h3.72a.48.48,0,0,1,.48.48A.5.5,0,0,1,383.33,263.5Z" style="fill:#fff"></path><path d="M350.44,258.59a.55.55,0,0,1,.77-.07,3.47,3.47,0,0,0,2,.81,2.3,2.3,0,0,0,1.32-.39,1,1,0,0,0,.45-.76.64.64,0,0,0-.09-.34,1.06,1.06,0,0,0-.32-.31,4.31,4.31,0,0,0-1.45-.5h0a5.54,5.54,0,0,1-1.36-.41,2.25,2.25,0,0,1-1-.82,1.63,1.63,0,0,1-.24-.87,2,2,0,0,1,.84-1.54,3.13,3.13,0,0,1,1.83-.56,4.13,4.13,0,0,1,2.3.85.54.54,0,0,1,.14.75.52.52,0,0,1-.74.15,3.14,3.14,0,0,0-1.7-.67,2,2,0,0,0-1.18.36.82.82,0,0,0-.4.66.56.56,0,0,0,.07.3,1,1,0,0,0,.28.27,3.76,3.76,0,0,0,1.32.47h0a6,6,0,0,1,1.46.44,2.43,2.43,0,0,1,1.05.87,1.72,1.72,0,0,1,.26.9,2,2,0,0,1-.91,1.63,3.3,3.3,0,0,1-1.95.61,4.51,4.51,0,0,1-2.7-1.06A.57.57,0,0,1,350.44,258.59Z" style="fill:#fff"></path><path d="M360.77,260.43a3,3,0,0,1-3-3.05v-3.76a.57.57,0,0,1,.58-.58.6.6,0,0,1,.59.58v3.76a1.88,1.88,0,1,0,3.75,0v-3.76a.59.59,0,0,1,.59-.58.57.57,0,0,1,.58.58v3.76A3,3,0,0,1,360.77,260.43Z" style="fill:#fff"></path><path d="M368.75,257.56h-1.29v2.29a.6.6,0,0,1-.59.58.59.59,0,0,1-.58-.58v-6.23a.58.58,0,0,1,.58-.58h1.88a2.26,2.26,0,1,1,0,4.52Zm-1.29-1.17h1.29a1.09,1.09,0,1,0,0-2.18h-1.29Z" style="fill:#fff"></path><path d="M372.43,259.85v-6.23A.58.58,0,0,1,373,253h3.45a.59.59,0,0,1,0,1.17H373.6v1.93h2.46a.59.59,0,0,1,0,1.18H373.6v1.94h2.86a.59.59,0,0,1,0,1.17H373A.59.59,0,0,1,372.43,259.85Z" style="fill:#fff"></path><path d="M383.78,259.55a.59.59,0,0,1-.37.74,1,1,0,0,1-.23,0h0a.75.75,0,0,1-.42-.12,1,1,0,0,1-.33-.36,2.84,2.84,0,0,1-.22-1.27.89.89,0,0,0-.13-.45,1,1,0,0,0-.32-.31,1.83,1.83,0,0,0-.59-.25h-1.24v2.29a.6.6,0,0,1-.59.58.58.58,0,0,1-.58-.58v-6.23a.57.57,0,0,1,.58-.58h1.89a2.26,2.26,0,0,1,2.25,2.27,2.21,2.21,0,0,1-.82,1.73,1.72,1.72,0,0,1,.37.39,2,2,0,0,1,.35,1.14,2.73,2.73,0,0,0,0,.62A.6.6,0,0,1,383.78,259.55Zm-1.48-4.24a1.09,1.09,0,0,0-1.08-1.1h-1.3v2.18h1.3A1.08,1.08,0,0,0,382.3,255.31Z" style="fill:#fff"></path><path d="M379.4,229.51c.78,7.31,3.83,42.33,10.65,42.1,2.4-.07,3.83-5.78,4.38-14.07.06-.81.11-1.65.15-2.51.14-3.1.17-6.49.1-10,0-.82,0-1.64-.06-2.48-.11-3.26-.3-6.62-.57-10-.07-.82-.13-1.62-.21-2.43s-.13-1.38-.2-2.07c-.24-2.27-.5-4.53-.81-6.75-.12-.82-.23-1.64-.34-2.44-.67-4.5-1.45-8.82-2.32-12.75-.16-.77-.34-1.51-.51-2.25-2.37-10-5.29-17.12-8-17.53C375.72,185.45,377.45,211.33,379.4,229.51Z" style="fill:#ebebeb"></path><path d="M387.21,254a1.19,1.19,0,0,0,.29.12.31.31,0,0,0,.14.07,14.52,14.52,0,0,1,6.79,3.32c.06-.81.11-1.65.15-2.51a9.41,9.41,0,0,0-7.17-1.46.07.07,0,0,0-.06,0l-.1,0A.22.22,0,0,0,387.21,254Z" style="fill:#c7c7c7"></path><path d="M386.65,243.46a1.05,1.05,0,0,0,.3,0,.17.17,0,0,0,.14,0,13.29,13.29,0,0,1,7.34,1.35,2,2,0,0,1,.25.14c0-.82,0-1.64-.06-2.48a9.38,9.38,0,0,0-7.88.43s0,0-.05,0l-.09.05A.22.22,0,0,0,386.65,243.46Z" style="fill:#c7c7c7"></path><path d="M385.69,232.8a.75.75,0,0,0,.3,0,.14.14,0,0,0,.14,0,13.06,13.06,0,0,1,7.38-.37l.54.17c-.07-.82-.13-1.62-.21-2.43a9.65,9.65,0,0,0-8.14,2.16s0,.05,0,.07l-.08.06C385.47,232.53,385.46,232.79,385.69,232.8Z" style="fill:#c7c7c7"></path><path d="M384.59,221.58a.78.78,0,0,0,.3,0,.14.14,0,0,0,.14,0,13,13,0,0,1,7.37-.37,3.09,3.09,0,0,1,.43.14c-.12-.82-.23-1.64-.34-2.44a9.56,9.56,0,0,0-7.9,2.2.07.07,0,0,0,0,.07l-.08.06C384.37,221.31,384.35,221.57,384.59,221.58Z" style="fill:#c7c7c7"></path><path d="M382.78,208.4a1.45,1.45,0,0,0,.29-.11.27.27,0,0,0,.14,0,13.31,13.31,0,0,1,7-2.13c-.16-.77-.34-1.51-.51-2.25a10.18,10.18,0,0,0-7,4,.16.16,0,0,0,0,.09.27.27,0,0,1-.07.08C382.53,208.18,382.55,208.44,382.78,208.4Z" style="fill:#c7c7c7"></path><path d="M369.27,235.35c2,7,10.84,40.81,17.45,39,2.33-.64,2.76-6.62,1.91-14.91-.08-.81-.18-1.66-.28-2.51-.38-3.09-.92-6.43-1.58-9.9-.15-.81-.31-1.61-.48-2.43-.65-3.19-1.4-6.45-2.23-9.69-.2-.79-.4-1.57-.61-2.35l-.54-2c-.61-2.18-1.25-4.35-1.93-6.47-.24-.78-.49-1.56-.74-2.32-1.4-4.28-2.89-8.35-4.39-12-.29-.72-.59-1.41-.88-2.09-4-9.33-8-15.62-10.77-15.38C358.3,192.79,364.33,217.89,369.27,235.35Z" style="fill:#ebebeb"></path><path d="M381,257.66a.75.75,0,0,0,.3,0,.2.2,0,0,0,.14.05,13.49,13.49,0,0,1,7.18,1.66c-.08-.81-.18-1.66-.28-2.51a9.17,9.17,0,0,0-7.24.26.1.1,0,0,0-.05.06l-.09,0A.22.22,0,0,0,381,257.66Z" style="fill:#c7c7c7"></path><path d="M378.68,247.38a1,1,0,0,0,.3,0,.14.14,0,0,0,.14,0,13,13,0,0,1,7.37-.41l.28.08c-.15-.81-.31-1.61-.48-2.43a9.56,9.56,0,0,0-7.6,2.29s0,0-.05.07-.05,0-.07.06S378.45,247.36,378.68,247.38Z" style="fill:#c7c7c7"></path><path d="M376,237.1a1,1,0,0,0,.29-.11.16.16,0,0,0,.13,0,13.19,13.19,0,0,1,7.13-2.11,5.07,5.07,0,0,1,.55,0c-.2-.79-.4-1.57-.61-2.35a10.23,10.23,0,0,0-7.57,4.06.09.09,0,0,0,0,.08s0,.06-.07.08S375.73,237.14,376,237.1Z" style="fill:#c7c7c7"></path><path d="M373,226.3a1,1,0,0,0,.29-.11.13.13,0,0,0,.13,0,13.19,13.19,0,0,1,7.13-2.11,3.11,3.11,0,0,1,.43,0c-.24-.78-.49-1.56-.74-2.32a10.13,10.13,0,0,0-7.32,4,.13.13,0,0,0,0,.08.19.19,0,0,1-.07.08C372.74,226.08,372.77,226.34,373,226.3Z" style="fill:#c7c7c7"></path><path d="M369,213.73a1.45,1.45,0,0,0,.26-.17.24.24,0,0,0,.13-.07,14,14,0,0,1,6.43-3.75c-.29-.72-.59-1.41-.88-2.09a11,11,0,0,0-6.11,5.59.1.1,0,0,0,0,.09l-.05.09C368.74,213.58,368.81,213.83,369,213.73Z" style="fill:#c7c7c7"></path><path d="M404.09,237.31c-3.27,12-6.39,24.36-6.39,24.36a4.1,4.1,0,0,0,4.14,1.06s3.41-12.43,6.66-24.3c.12-.41.23-.83.35-1.24s.15-.57.23-.85c.23-.84.46-1.68.68-2.5.08-.28.16-.56.23-.84l1.37-5c.08-.29.16-.57.23-.85,1.34-4.87,2.36-8.59,2.65-9.66,1.47-5.43,14.18-22.08,14.18-22.08s.91-1.69-2.24-3c0,0-4.78,6.73-9.13,13.21l9.19-17a3.21,3.21,0,0,0-2.61-1.68l-5.11,9.91,3.34-11.08s-.81-1-3.26-.83l-5.3,20,2.32-16.8a5.3,5.3,0,0,0-3-.38s-.83,11.36-2.76,26l.36-18.33a3.5,3.5,0,0,0-2.84.21s2.15,18.73-.21,30.31l-.18.86c-.09.4-.19.78-.3,1.16h0l-1.08,3.82-.24.84c-.23.82-.46,1.66-.69,2.5-.08.28-.16.56-.23.84S404.2,236.89,404.09,237.31Z" style="fill:#fff"></path><path d="M407.36,195.72s2.15,18.73-.21,30.31l4.44,1.13c1.34-4.87,2.36-8.59,2.65-9.66,1.47-5.43,14.18-22.08,14.18-22.08s.91-1.69-2.24-3c0,0-4.78,6.73-9.13,13.21l9.19-17a3.21,3.21,0,0,0-2.61-1.68l-5.11,9.91,3.34-11.08s-.81-1-3.26-.83l-5.3,20,2.32-16.8a5.3,5.3,0,0,0-3-.38s-.83,11.36-2.76,26l.36-18.33A3.5,3.5,0,0,0,407.36,195.72Z" style="fill:#37474f"></path><path d="M405.59,231.88,410,233l1.37-5L407,226.89c-.09.4-.19.78-.3,1.16h0Z" style="fill:#37474f"></path><path d="M404.66,235.22l4.42,1.12c.23-.84.46-1.68.68-2.5l-4.41-1.12C405.12,233.54,404.89,234.38,404.66,235.22Z" style="fill:#37474f"></path><path d="M404.09,237.31l4.41,1.12c.12-.41.23-.83.35-1.24l-4.42-1.13C404.31,236.48,404.2,236.89,404.09,237.31Z" style="fill:#37474f"></path><path d="M399.1,232.26c-1.47,12.33-3.24,25-3.24,25a4.11,4.11,0,0,1-4.23-.59s1.51-12.79,3-25l.15-1.28c0-.3.07-.59.1-.88.1-.86.21-1.72.3-2.57,0-.29.07-.58.11-.87.21-1.79.41-3.52.61-5.14,0-.29.07-.58.1-.87.59-5,1.05-8.84,1.18-9.95.68-5.58-4.84-25.78-4.84-25.78s-.21-1.91,3.19-1.92c0,0,1.9,8,3.49,15.68l-2.13-19.17a3.21,3.21,0,0,1,3-.58l1,11.1L402,177.89s1.15-.67,3.34.46l-2.61,20.52,4.17-16.44a5.25,5.25,0,0,1,2.94.79s-3.5,10.83-7.21,25.13l6.55-17.13a3.49,3.49,0,0,1,2.55,1.26s-9,16.56-11.2,28.17q-.09.43-.15.87c-.07.4-.12.8-.17,1.19h0c-.13,1.27-.28,2.59-.43,3.94,0,.29-.06.58-.1.87-.09.85-.19,1.71-.29,2.57,0,.29-.07.58-.11.88Z" style="fill:#fff"></path><path d="M411.7,192.48s-9,16.56-11.2,28.17L396,220c.59-5,1.05-8.84,1.18-9.95.68-5.58-4.84-25.78-4.84-25.78s-.21-1.91,3.19-1.92c0,0,1.9,8,3.49,15.68l-2.13-19.17a3.21,3.21,0,0,1,3-.58l1,11.1L402,177.89s1.15-.67,3.34.46l-2.61,20.52,4.17-16.44a5.25,5.25,0,0,1,2.94.79s-3.5,10.83-7.21,25.13l6.55-17.13A3.49,3.49,0,0,1,411.7,192.48Z" style="fill:#455a64"></path><path d="M399.75,226.66l-4.5-.62c.21-1.79.41-3.52.61-5.14l4.49.62c-.07.4-.12.8-.17,1.19h0C400.05,224,399.9,225.31,399.75,226.66Z" style="fill:#455a64"></path><path d="M399.36,230.1l-4.52-.62c.1-.86.21-1.72.3-2.57l4.51.62C399.56,228.38,399.46,229.24,399.36,230.1Z" style="fill:#455a64"></path><path d="M399.1,232.26l-4.51-.62.15-1.28,4.51.62Z" style="fill:#455a64"></path><polygon points="416.3 218.61 416.3 315.24 353.6 315.24 353.6 218.61 369.5 218.61 369.5 240.65 400.41 240.65 400.41 218.61 416.3 218.61" style="fill:#5770FD"></polygon><polygon points="416.3 218.61 416.3 315.24 353.6 315.24 353.6 218.61 369.5 218.61 369.5 240.65 400.41 240.65 400.41 218.61 416.3 218.61" style="fill:#fff;opacity:0.5"></polygon><path d="M373.58,264.05v5.14a.5.5,0,0,1-.49.48.48.48,0,0,1-.48-.48v-3.67l-1.26,1.74a.46.46,0,0,1-.39.2h0a.51.51,0,0,1-.4-.2l-1.24-1.74v3.67a.49.49,0,0,1-1,0v-5.14a.49.49,0,0,1,.48-.48h0a.47.47,0,0,1,.38.2l1.73,2.4,1.74-2.4a.46.46,0,0,1,.39-.2h0A.5.5,0,0,1,373.58,264.05Z" style="fill:#fff"></path><path d="M378.23,268.23h-2.12l-.42,1.13a.5.5,0,0,1-.46.31.41.41,0,0,1-.16,0,.49.49,0,0,1-.29-.63l1.93-5.13a.5.5,0,0,1,.92,0l1.92,5.13a.49.49,0,0,1-.28.63.47.47,0,0,1-.17,0,.47.47,0,0,1-.44-.31Zm-.36-1-.7-1.87-.71,1.87Z" style="fill:#fff"></path><path d="M384.79,269a.48.48,0,0,1-.31.6.61.61,0,0,1-.19,0h0a.69.69,0,0,1-.34-.09.93.93,0,0,1-.28-.31,2.39,2.39,0,0,1-.18-1.05.68.68,0,0,0-.11-.37.7.7,0,0,0-.26-.25,1.86,1.86,0,0,0-.48-.21h-1v1.89a.49.49,0,0,1-.49.48.48.48,0,0,1-.48-.48v-5.14a.47.47,0,0,1,.48-.48h1.56a1.86,1.86,0,0,1,1.86,1.87,1.84,1.84,0,0,1-.68,1.43,1.35,1.35,0,0,1,.31.32,1.71,1.71,0,0,1,.29.94,2.1,2.1,0,0,0,0,.52A.49.49,0,0,1,384.79,269Zm-1.22-3.51a.9.9,0,0,0-.9-.9H381.6v1.79h1.07A.89.89,0,0,0,383.57,265.44Z" style="fill:#fff"></path><path d="M386.2,269.19v-5.1a.48.48,0,0,1,1,0v2.5l2.82-2.83a.48.48,0,0,1,.68,0,.5.5,0,0,1,0,.68l-1.92,1.91,1.94,2.53a.47.47,0,0,1-.07.67.45.45,0,0,1-.31.12.44.44,0,0,1-.35-.18L388.06,267l-.9.92v1.24a.48.48,0,0,1-1,0Z" style="fill:#fff"></path><path d="M392.43,269.19v-5.14a.47.47,0,0,1,.48-.48h2.85a.49.49,0,0,1,.48.48.5.5,0,0,1-.48.49H393.4v1.59h2a.49.49,0,0,1,0,1h-2v1.6h2.36a.49.49,0,0,1,0,1h-2.85A.48.48,0,0,1,392.43,269.19Z" style="fill:#fff"></path><path d="M401.33,264.54H400v4.65a.48.48,0,1,1-1,0v-4.65h-1.38a.49.49,0,0,1-.48-.49.47.47,0,0,1,.48-.48h3.72a.48.48,0,0,1,.48.48A.5.5,0,0,1,401.33,264.54Z" style="fill:#fff"></path><path d="M368.44,259.63a.56.56,0,0,1,.78-.07,3.41,3.41,0,0,0,2,.81,2.3,2.3,0,0,0,1.32-.39,1,1,0,0,0,.45-.76.64.64,0,0,0-.09-.34,1.06,1.06,0,0,0-.32-.31,4.31,4.31,0,0,0-1.45-.5h0a5.54,5.54,0,0,1-1.36-.41,2.25,2.25,0,0,1-1-.82,1.63,1.63,0,0,1-.24-.87,2,2,0,0,1,.84-1.54,3.13,3.13,0,0,1,1.83-.56,4.13,4.13,0,0,1,2.3.85.54.54,0,0,1,.14.75.52.52,0,0,1-.74.15,3.14,3.14,0,0,0-1.7-.67,2,2,0,0,0-1.18.36.82.82,0,0,0-.4.66.56.56,0,0,0,.07.3,1,1,0,0,0,.29.27,3.62,3.62,0,0,0,1.31.47h0a6,6,0,0,1,1.46.44,2.43,2.43,0,0,1,1.05.87,1.72,1.72,0,0,1,.26.9,2,2,0,0,1-.91,1.63,3.3,3.3,0,0,1-1.95.61,4.51,4.51,0,0,1-2.7-1.06A.57.57,0,0,1,368.44,259.63Z" style="fill:#fff"></path><path d="M378.77,261.47a3,3,0,0,1-3-3.05v-3.76a.57.57,0,0,1,.58-.58.59.59,0,0,1,.59.58v3.76a1.88,1.88,0,1,0,3.75,0v-3.76a.59.59,0,0,1,.59-.58.57.57,0,0,1,.58.58v3.76A3,3,0,0,1,378.77,261.47Z" style="fill:#fff"></path><path d="M386.76,258.6h-1.3v2.29a.59.59,0,0,1-1.17,0v-6.23a.58.58,0,0,1,.58-.58h1.89a2.26,2.26,0,1,1,0,4.52Zm-1.3-1.17h1.3a1.09,1.09,0,1,0,0-2.18h-1.3Z" style="fill:#fff"></path><path d="M390.43,260.89v-6.23a.58.58,0,0,1,.58-.58h3.45a.59.59,0,0,1,0,1.17H391.6v1.93h2.46a.6.6,0,0,1,.58.59.59.59,0,0,1-.58.59H391.6v1.94h2.86a.59.59,0,0,1,0,1.17H391s0,0,0,0h0A.59.59,0,0,1,390.43,260.89Z" style="fill:#fff"></path><path d="M401.78,260.59a.59.59,0,0,1-.37.74,1,1,0,0,1-.23,0h0a.77.77,0,0,1-.41-.11,1.09,1.09,0,0,1-.34-.37,2.84,2.84,0,0,1-.22-1.27.89.89,0,0,0-.13-.45,1,1,0,0,0-.32-.31,1.83,1.83,0,0,0-.59-.25h-1.24v2.29a.6.6,0,0,1-.59.58.58.58,0,0,1-.58-.58v-6.23a.57.57,0,0,1,.58-.58h1.89a2.26,2.26,0,0,1,2.25,2.27,2.21,2.21,0,0,1-.82,1.73,1.72,1.72,0,0,1,.37.39,2,2,0,0,1,.35,1.14,2.73,2.73,0,0,0,0,.62A.58.58,0,0,1,401.78,260.59Zm-1.48-4.24a1.09,1.09,0,0,0-1.08-1.1h-1.3v2.18h1.3A1.08,1.08,0,0,0,400.3,256.35Z" style="fill:#fff"></path></g><g id="freepik--shopping-basket-2--inject-7"><polygon points="51.38 259.18 134.98 259.18 134.98 248.34 51.38 248.34 51.38 248.34 51.38 259.18" style="fill:#5770FD"></polygon><path d="M130.72,256.88H55.64l2.54,40.2h70ZM120,263a1,1,0,0,1,1-1h.38a1,1,0,0,1,1,1v25.4a1,1,0,0,1-1,1h-.18a1.19,1.19,0,0,1-1.19-1.19Zm-6.22,0a1,1,0,0,1,1-1h.39a1,1,0,0,1,1,1v25.2a1.19,1.19,0,0,1-1.19,1.19h-.19a1,1,0,0,1-1-1Zm-6.23.2a1.18,1.18,0,0,1,1.18-1.18h0a1.19,1.19,0,0,1,1.19,1.19v25.19a1,1,0,0,1-1,1h-.39a1,1,0,0,1-1-1Zm-6.22-.2a1,1,0,0,1,1-1h.38a1,1,0,0,1,1,1v25.4a1,1,0,0,1-1,1h-.18a1.19,1.19,0,0,1-1.2-1.19Zm-6.21,0a1,1,0,0,1,1-1h.38a1,1,0,0,1,1,1v25.2a1.19,1.19,0,0,1-1.19,1.19H96.1a1,1,0,0,1-1-1Zm-6.23.21A1.19,1.19,0,0,1,90.08,262h0a1.18,1.18,0,0,1,1.18,1.18v25.2a1,1,0,0,1-1,1h-.39a1,1,0,0,1-1-1ZM82.67,263a1,1,0,0,1,1-1h.39a1,1,0,0,1,1,1v25.4a1,1,0,0,1-1,1h-.19a1.19,1.19,0,0,1-1.19-1.19Zm-6.22,0a1,1,0,0,1,1-1h.39a1,1,0,0,1,1,1v25.2a1.19,1.19,0,0,1-1.19,1.19h-.19a1,1,0,0,1-1-1Zm-6.22.21A1.19,1.19,0,0,1,71.42,262h0a1.18,1.18,0,0,1,1.17,1.18v25.2a1,1,0,0,1-1,1h-.38a1,1,0,0,1-1-1ZM64,263a1,1,0,0,1,1-1h.39a1,1,0,0,1,1,1v25.4a1,1,0,0,1-1,1H65.2A1.19,1.19,0,0,1,64,288.15Z" style="fill:#5770FD"></path><circle cx="93.18" cy="252.54" r="8.13" style="fill:#5770FD"></circle><polygon points="121.34 271.91 65.02 271.91 56.19 249.2 58.06 248.48 66.39 269.91 119.97 269.91 128.31 248.48 130.17 249.2 121.34 271.91" style="fill:#a6a6a6"></polygon></g><g id="freepik--shopping-basket-1--inject-7"><polygon points="179.44 403.06 96.02 403.06 96.02 392.24 179.44 392.24 179.44 392.24 179.44 403.06" style="fill:#5770FD"></polygon><polygon points="179.44 403.06 96.02 403.06 96.02 392.24 179.44 392.24 179.44 392.24 179.44 403.06" style="opacity:0.1"></polygon><path d="M102.8,440.88h69.86l2.53-40.11H100.27ZM111,432a1.19,1.19,0,0,1-1.19,1.19h-.19a1,1,0,0,1-1-1V406.82a1,1,0,0,1,1-1H110a1,1,0,0,1,1,1Zm6.2.2a1,1,0,0,1-1,1H116a1.19,1.19,0,0,1-1.19-1.19V406.82a1,1,0,0,1,1-1h.39a1,1,0,0,1,1,1Zm6.22,0a1,1,0,0,1-1,1H122a1,1,0,0,1-1-1V407a1.19,1.19,0,0,1,1.19-1.19h0a1.18,1.18,0,0,1,1.18,1.18Zm6.2-.2a1.19,1.19,0,0,1-1.19,1.19h-.18a1,1,0,0,1-1-1V406.82a1,1,0,0,1,1-1h.38a1,1,0,0,1,1,1Zm6.21.2a1,1,0,0,1-1,1h-.19a1.19,1.19,0,0,1-1.19-1.19V406.82a1,1,0,0,1,1-1h.39a1,1,0,0,1,1,1Zm6.21,0a1,1,0,0,1-1,1h-.38a1,1,0,0,1-1-1V407a1.18,1.18,0,0,1,1.17-1.18h0A1.19,1.19,0,0,1,142,407Zm6.21-.2a1.19,1.19,0,0,1-1.19,1.19h-.19a1,1,0,0,1-1-1V406.82a1,1,0,0,1,1-1h.39a1,1,0,0,1,1,1Zm6.2.2a1,1,0,0,1-1,1h-.18a1.19,1.19,0,0,1-1.19-1.19V406.82a1,1,0,0,1,1-1h.38a1,1,0,0,1,1,1Zm6.22,0a1,1,0,0,1-1,1h-.39a1,1,0,0,1-1-1V407a1.18,1.18,0,0,1,1.18-1.18h0a1.19,1.19,0,0,1,1.19,1.19Zm6.2-.2a1.19,1.19,0,0,1-1.19,1.19h-.18a1,1,0,0,1-1-1V406.82a1,1,0,0,1,1-1h.38a1,1,0,0,1,1,1Z" style="fill:#5770FD"></path><path d="M102.8,440.88h69.86l2.53-40.11H100.27ZM111,432a1.19,1.19,0,0,1-1.19,1.19h-.19a1,1,0,0,1-1-1V406.82a1,1,0,0,1,1-1H110a1,1,0,0,1,1,1Zm6.2.2a1,1,0,0,1-1,1H116a1.19,1.19,0,0,1-1.19-1.19V406.82a1,1,0,0,1,1-1h.39a1,1,0,0,1,1,1Zm6.22,0a1,1,0,0,1-1,1H122a1,1,0,0,1-1-1V407a1.19,1.19,0,0,1,1.19-1.19h0a1.18,1.18,0,0,1,1.18,1.18Zm6.2-.2a1.19,1.19,0,0,1-1.19,1.19h-.18a1,1,0,0,1-1-1V406.82a1,1,0,0,1,1-1h.38a1,1,0,0,1,1,1Zm6.21.2a1,1,0,0,1-1,1h-.19a1.19,1.19,0,0,1-1.19-1.19V406.82a1,1,0,0,1,1-1h.39a1,1,0,0,1,1,1Zm6.21,0a1,1,0,0,1-1,1h-.38a1,1,0,0,1-1-1V407a1.18,1.18,0,0,1,1.17-1.18h0A1.19,1.19,0,0,1,142,407Zm6.21-.2a1.19,1.19,0,0,1-1.19,1.19h-.19a1,1,0,0,1-1-1V406.82a1,1,0,0,1,1-1h.39a1,1,0,0,1,1,1Zm6.2.2a1,1,0,0,1-1,1h-.18a1.19,1.19,0,0,1-1.19-1.19V406.82a1,1,0,0,1,1-1h.38a1,1,0,0,1,1,1Zm6.22,0a1,1,0,0,1-1,1h-.39a1,1,0,0,1-1-1V407a1.18,1.18,0,0,1,1.18-1.18h0a1.19,1.19,0,0,1,1.19,1.19Zm6.2-.2a1.19,1.19,0,0,1-1.19,1.19h-.18a1,1,0,0,1-1-1V406.82a1,1,0,0,1,1-1h.38a1,1,0,0,1,1,1Z" style="opacity:0.1"></path><circle cx="137.73" cy="396.44" r="8.11" transform="translate(-140.59 82.31) rotate(-22.38)" style="fill:#5770FD"></circle><circle cx="137.73" cy="396.44" r="8.11" transform="translate(-140.59 82.31) rotate(-22.38)" style="opacity:0.1"></circle><polygon points="165.83 415.77 109.63 415.77 100.81 393.1 102.68 392.38 111 413.77 164.46 413.77 172.78 392.38 174.64 393.1 165.83 415.77" style="fill:#a6a6a6"></polygon><polygon points="179.61 410.57 96.19 410.57 96.19 399.76 179.61 399.76 179.61 399.76 179.61 410.57" style="fill:#5770FD"></polygon><path d="M103,448.4h69.86l2.53-40.12H100.44Zm8.17-8.91a1.18,1.18,0,0,1-1.19,1.18h-.18a1,1,0,0,1-1-1V414.33a1,1,0,0,1,1-1h.38a1,1,0,0,1,1,1Zm6.2.19a1,1,0,0,1-1,1h-.19a1.18,1.18,0,0,1-1.19-1.18V414.33a1,1,0,0,1,1-1h.39a1,1,0,0,1,1,1Zm6.22,0a1,1,0,0,1-1,1h-.38a1,1,0,0,1-1-1V414.54a1.19,1.19,0,0,1,1.18-1.19h0a1.18,1.18,0,0,1,1.18,1.18Zm6.2-.19a1.18,1.18,0,0,1-1.18,1.18h-.19a1,1,0,0,1-1-1V414.33a1,1,0,0,1,1-1h.38a1,1,0,0,1,1,1Zm6.21.19a1,1,0,0,1-1,1h-.19a1.18,1.18,0,0,1-1.18-1.19V414.33a1,1,0,0,1,1-1H135a1,1,0,0,1,1,1Zm6.21,0a1,1,0,0,1-1,1h-.38a1,1,0,0,1-1-1V414.53a1.18,1.18,0,0,1,1.18-1.18h0a1.19,1.19,0,0,1,1.18,1.19Zm6.21-.19a1.18,1.18,0,0,1-1.19,1.18H147a1,1,0,0,1-1-1V414.33a1,1,0,0,1,1-1h.39a1,1,0,0,1,1,1Zm6.2.19a1,1,0,0,1-1,1h-.18a1.18,1.18,0,0,1-1.19-1.18V414.33a1,1,0,0,1,1-1h.38a1,1,0,0,1,1,1Zm6.22,0a1,1,0,0,1-1,1h-.39a1,1,0,0,1-1-1V414.53a1.18,1.18,0,0,1,1.18-1.18h0a1.2,1.2,0,0,1,1.19,1.19Zm6.2-.19a1.18,1.18,0,0,1-1.19,1.18h-.18a1,1,0,0,1-1-1V414.33a1,1,0,0,1,1-1H166a1,1,0,0,1,1,1Z" style="fill:#5770FD"></path><circle cx="137.9" cy="403.95" r="8.11" transform="matrix(0.92, -0.38, 0.38, 0.92, -143.43, 82.95)" style="fill:#5770FD"></circle><polygon points="166 423.28 109.8 423.28 100.99 400.62 102.85 399.89 111.17 421.28 164.63 421.28 172.95 399.89 174.81 400.62 166 423.28" style="fill:#a6a6a6"></polygon></g><g id="freepik--Character--inject-7"><path d="M381.81,392.09s1,39.61,1,39.64c0,7.32-.17,13.74-.56,17a.13.13,0,0,1,0,.06,5.13,5.13,0,0,1-.54,2.26l-.05,0c-2.18,1.47-60.7,3-62.76,2.36s-.41-6.55,1.81-8.42,24.38-12.48,24.38-12.48L344.44,393Z" style="fill:#ad6359"></path><path d="M382.88,423.87s-.07,7.83-.07,7.86c0,7.32-.17,13.74-.56,17a.13.13,0,0,1,0,.06,10.14,10.14,0,0,1-.54,2.26l-.05,0c-2.18,1.47-60.7,3-62.76,2.36s-.41-6.55,1.81-8.42,24.38-12.48,24.38-12.48l0-8Z" style="fill:#fff"></path><path d="M341.49,432.62c3.9-.64,8.64.06,11.54,2.89.12.11,0,.27-.17.22a55.1,55.1,0,0,0-11.36-2.62A.25.25,0,0,1,341.49,432.62Z" style="fill:#263238"></path><path d="M338.65,434.25c3.9-.64,8.64.06,11.54,2.89.12.11,0,.27-.16.22a54.7,54.7,0,0,0-11.37-2.62A.25.25,0,0,1,338.65,434.25Z" style="fill:#263238"></path><path d="M335.82,435.88c3.89-.64,8.63.06,11.54,2.89.11.11-.05.26-.17.22a54.7,54.7,0,0,0-11.37-2.62A.25.25,0,0,1,335.82,435.88Z" style="fill:#263238"></path><path d="M318.89,453.5c2.06.64,60.58-.88,62.76-2.36.85-.54,1.12-9.08,1.16-19.41v-.32l-37.76.56,0,.64s-22.14,10.6-24.38,12.47S316.83,452.87,318.89,453.5Z" style="fill:#37474f"></path><path d="M382.81,431.4v.34c0,10.32-.31,18.86-1.16,19.4S368,452.49,354.27,453c-16.4.58-34.26.87-35.38.53-2.06-.64-.4-6.56,1.81-8.43s24.38-12.48,24.38-12.48l0-.63,12.6-.19Z" style="fill:#5770FD"></path><path d="M319.49,451.21c9.86-.49,49.67-1.57,59.45-1.32.08,0,.08.06,0,.07-9.76.7-49.57,1.46-59.44,1.42C319.29,451.37,319.28,451.22,319.49,451.21Z" style="fill:#263238"></path><path d="M357.64,431.78c-.93,6.33-2.33,15.65-3.37,21.2-16.4.58-34.26.87-35.38.53-2.06-.64-.4-6.56,1.81-8.43s24.38-12.48,24.38-12.48l0-.63Z" style="opacity:0.1"></path><path d="M386.22,432l-42.35.4s-2.4-69-2.59-91.94c-.2-26.26,1.28-105,1.28-105h31.66s8.5,17.36,3.64,36.9l-1.34,70.28Z" style="fill:#263238"></path><path d="M383.08,424.53a31.85,31.85,0,0,0-3.38-.27c-1.25-.09-2.49-.18-3.75-.23q-3.61-.15-7.23-.16c-4.86,0-9.72,0-14.58.18-2.77.08-5.53.19-8.29.35a.09.09,0,0,0,0,.17c4.82.18,9.64.25,14.47.35s9.64.19,14.45.09c1.38,0,2.77,0,4.15-.12s2.79,0,4.14-.2C383.14,424.68,383.17,424.55,383.08,424.53Z" style="fill:#37474f"></path><path d="M346.92,386.47c-.49-11.4-.86-22.8-1.17-34.21q-.94-34.23-.49-68.46c.16-12.81.5-25.61.88-38.41,0-.14-.22-.14-.23,0-1.21,22.91-1.67,45.87-1.7,68.81s.46,45.65,1.58,68.45c.64,12.8,1.41,25.6,2.62,38.35,0,.11.18.11.17,0C348.07,409.5,347.42,398,346.92,386.47Z" style="fill:#37474f"></path><path d="M336.51,398.38s-.32,38.29-.32,38.32c0,7.32-.18,13.74-.57,17.05,0,0,0,0,0,.06a5.28,5.28,0,0,1-.55,2.26l0,0c-2.19,1.47-60.71,3-62.77,2.36s-.41-6.56,1.81-8.43,24.38-12.47,24.38-12.47l.69-38.27Z" style="fill:#ad6359"></path><path d="M336.25,428.84s-.06,7.83-.06,7.86c0,7.32-.18,13.74-.57,17.05,0,0,0,0,0,.06a10.52,10.52,0,0,1-.55,2.26l0,0c-2.19,1.47-60.71,3-62.77,2.36s-.41-6.56,1.81-8.43,24.38-12.47,24.38-12.47l0-8Z" style="fill:#fff"></path><path d="M294.87,437.59c3.89-.64,8.63.06,11.54,2.89.11.11-.05.26-.17.22a54.7,54.7,0,0,0-11.37-2.62A.25.25,0,0,1,294.87,437.59Z" style="fill:#263238"></path><path d="M292,439.22c3.9-.64,8.63.06,11.54,2.88.11.11-.05.27-.17.23A54.7,54.7,0,0,0,292,439.71.25.25,0,0,1,292,439.22Z" style="fill:#263238"></path><path d="M289.19,440.85c3.9-.64,8.63,0,11.54,2.88.11.11,0,.27-.17.23a54.46,54.46,0,0,0-11.36-2.62A.25.25,0,0,1,289.19,440.85Z" style="fill:#263238"></path><path d="M272.26,458.47c2.06.63,60.58-.89,62.77-2.36.84-.54,1.12-9.08,1.15-19.41v-.33l-37.76.56,0,.64s-22.14,10.6-24.38,12.48S270.2,457.84,272.26,458.47Z" style="fill:#5770FD"></path><path d="M272.87,456.18c9.85-.5,49.66-1.58,59.44-1.32.08,0,.08.06,0,.06-9.76.71-49.57,1.47-59.44,1.42C272.66,456.34,272.66,456.19,272.87,456.18Z" style="fill:#263238"></path><path d="M355.86,275.89s-17.38,54.76-17.69,64.82c-.27,8.58.83,96.62.83,96.62l-44,.26s3.72-89.78,4.4-98.72c1.29-16.72,15.93-62.62,26.41-103.5h47.41s-.41,21.41-10.15,36.9C363.09,272.27,358.68,274.31,355.86,275.89Z" style="fill:#263238"></path><path d="M336.66,429.22c-5.08-.14-10.34-.29-15.43-.17s-10.09.21-15.12.5c-2.86.17-5.7.27-8.55.55a.08.08,0,0,0,0,.16c5.08.29,10.18.23,15.26.19s10.09-.1,15.13-.34c2.85-.13,5.7-.27,8.55-.47C336.81,429.62,337,429.23,336.66,429.22Z" style="fill:#37474f"></path><path d="M327.05,261.16c-1.57,5.24-2.89,10.55-4.3,15.82s-2.82,10.65-4.22,16c-2.71,10.3-5.39,20.62-7.42,31.08a187.17,187.17,0,0,0-3.52,31.85c-.23,10.9,0,21.81.07,32.72s.17,21.92.36,32.88c0,1.36.05,2.73.1,4.09,0,.13.2.12.2,0,.29-10.9.14-21.82.1-32.73s-.18-21.82-.08-32.72a196.38,196.38,0,0,1,2.79-32.3c1.84-10.5,4.43-20.84,7.11-31.15q2.29-8.81,4.6-17.63c1.53-5.92,3.17-11.82,4.52-17.79A.16.16,0,0,0,327.05,261.16Z" style="fill:#37474f"></path><path d="M345,277a39.74,39.74,0,0,0,6.53-.59c2.18-.41,4.21-1.13,6.33-1.75a48,48,0,0,1,6.2-1,21.76,21.76,0,0,0,6.08-1.81c.09,0,.17.09.08.14a37.58,37.58,0,0,1-5.83,2.52c-2.08.66-4.26.75-6.38,1.27a53.84,53.84,0,0,1-6.51,1.5,23.73,23.73,0,0,1-6.52-.11C344.87,277.08,344.9,277,345,277Z" style="fill:#37474f"></path><path d="M342.21,320.51c.41-1.62.8-3.25,1.24-4.87.89-3.26,1.8-6.54,2.79-9.78,2-6.44,3.81-12.92,5.89-19.32,1.18-3.63,2.23-7.31,3.62-10.87a.07.07,0,0,1,.14,0c-.7,3.32-1.68,6.57-2.56,9.84s-1.82,6.53-2.77,9.79c-1.87,6.47-3.71,13-5.76,19.36-.57,1.8-1.16,3.6-1.78,5.38s-1.14,3.7-1.9,5.48a.08.08,0,0,1-.15-.05C341.26,323.82,341.78,322.17,342.21,320.51Z" style="fill:#37474f"></path><path d="M329.47,186.61c3.21.06,8-6.27,9.26-10.49.08-.29-.91-2.94-2-6.21-.63-2-1.28-4.21-1.74-6.28l-12.32,6a33.6,33.6,0,0,1,3,7.69,5.4,5.4,0,0,1,.1.87.86.86,0,0,0,0,.15C325.9,180,326.37,186.56,329.47,186.61Z" style="fill:#ad6359"></path><path d="M325.79,178.18s0,.09,0,.15a9,9,0,0,0,1.35-.22c7.6-2,7.73-11,7.51-14.3l-12,5.81a34.12,34.12,0,0,1,3,7.69A4.43,4.43,0,0,1,325.79,178.18Z" style="fill:#263238"></path><path d="M335.19,148c2.12,4.45,1.67,18.31-1.2,21.81-4.16,5.08-12,6.68-16.55,1.45s-3.53-23.13-.23-26.41C322.07,140,332.05,141.36,335.19,148Z" style="fill:#ad6359"></path><path d="M322.74,158.13s.07.05.07.09c0,.93.06,2,.9,2.33,0,0,0,0,0,0C322.68,160.44,322.55,159,322.74,158.13Z" style="fill:#263238"></path><path d="M323.59,157.17c1.5-.09,1.57,2.92.18,3S322.33,157.25,323.59,157.17Z" style="fill:#263238"></path><path d="M317.49,158.25s-.07.05-.07.08c.06.94,0,2-.88,2.34,0,0,0,.06,0,.06C317.58,160.56,317.69,159.12,317.49,158.25Z" style="fill:#263238"></path><path d="M316.64,157.3c-1.51-.08-1.55,2.93-.16,3S317.9,157.36,316.64,157.3Z" style="fill:#263238"></path><path d="M324.74,155.76c-.41-.09-.78-.25-1.18-.38a2,2,0,0,1-1.12-.62.62.62,0,0,1,.08-.77,1.59,1.59,0,0,1,1.59-.21,2.37,2.37,0,0,1,1.36,1A.68.68,0,0,1,324.74,155.76Z" style="fill:#263238"></path><path d="M315.43,155.81a11.62,11.62,0,0,0,1.19-.34,2,2,0,0,0,1.15-.58.63.63,0,0,0-.06-.78,1.57,1.57,0,0,0-1.58-.26,2.35,2.35,0,0,0-1.39.93A.68.68,0,0,0,315.43,155.81Z" style="fill:#263238"></path><path d="M323.94,166.59c-.22.23-.44.53-.78.57a2.33,2.33,0,0,1-1-.21,0,0,0,0,0,0,.05,1.26,1.26,0,0,0,1.19.48,1,1,0,0,0,.72-.85S324,166.56,323.94,166.59Z" style="fill:#263238"></path><path d="M322.89,163.82a3.17,3.17,0,0,1-2.09,1.47,4,4,0,0,1-1.14.08l-.22,0-.21,0a.22.22,0,0,1-.19-.2h0a.28.28,0,0,1,0-.09h0v-.08c0-.72,0-1.82,0-1.82-.26.14-1.58.78-1.57.4a48.4,48.4,0,0,1,1-9.65c0-.1.18-.08.17,0,0,3-.49,6-.53,9a5.81,5.81,0,0,1,1.49-.5c.1,0-.12,2.12-.08,2.44v0a4.4,4.4,0,0,0,3.27-1.1C322.86,163.69,322.94,163.75,322.89,163.82Z" style="fill:#263238"></path><path d="M320.07,165a3.78,3.78,0,0,0,1.54,1.14,1.8,1.8,0,0,0,1,0c.74-.22.75-.9.59-1.49a4.12,4.12,0,0,0-.35-.88A4.93,4.93,0,0,1,320.07,165Z" style="fill:#263238"></path><path d="M321.61,166.13a1.8,1.8,0,0,0,1,0c.74-.22.75-.9.59-1.49A1.77,1.77,0,0,0,321.61,166.13Z" style="fill:#ff97b8"></path><path d="M331.88,144.1c0,1.85.24,7.57,1.08,8.77s2.61,4,3.55,4.43c0-3.81-.42-7.45-1.33-9.36A9.7,9.7,0,0,0,331.88,144.1Z" style="fill:#263238;opacity:0.2"></path><path d="M320.59,149a4.55,4.55,0,0,0,4.17,1.55,4.63,4.63,0,0,0,3.58-2.77s.09,0,.07,0a4.64,4.64,0,0,1-3.59,3.11,4.71,4.71,0,0,1-4.31-1.84C320.47,149,320.55,148.91,320.59,149Z" style="fill:#263238"></path><path d="M325.33,137.71a7.2,7.2,0,0,1,6,3.33,5.12,5.12,0,0,1,.49,3.33s-.1,0-.1,0a5.61,5.61,0,0,0-2.64-5.08,7.24,7.24,0,0,0-6.4-.77,4.59,4.59,0,0,0-2.46,2c-.06.1-.25,0-.21-.06C320.76,138.77,322.93,137.66,325.33,137.71Z" style="fill:#263238"></path><path d="M310,143.43a5.83,5.83,0,0,1,2.49-3.14c1.62-1,3.45-.85,5.27-.66,0,0,0,.08,0,.08a8.07,8.07,0,0,0-4.56.5,5.79,5.79,0,0,0-2.65,2.79,5.6,5.6,0,0,0,2.31,6.94,5.67,5.67,0,0,0,4.47.46c.06,0,.1.06,0,.08a5.71,5.71,0,0,1-7.37-7Z" style="fill:#263238"></path><path d="M336.17,150.62s2.5-4.74.39-7.46c-1.19-1.55-5.14-1.33-5.14-1.33a7.09,7.09,0,0,0-4.55-3c-3.3-.75-7.22,1.2-7.22,1.2s-3.14-1.79-6.07-.1c-4.09,2.36-3.55,8.59.58,10.58,2.9,1.4,6.82-1.18,6.82-1.18.37,0,4.25,2.37,7.16-1.09,0,0,2.39,2.1,4.52.61A3.45,3.45,0,0,0,336.17,150.62Z" style="fill:#263238"></path><path d="M334,159.37s2.49-4.77,4.62-3.93.64,7.47-1.58,8.64a2.4,2.4,0,0,1-3.34-.87Z" style="fill:#ad6359"></path><path d="M338.1,157.33s0,0,0,.06a6,6,0,0,0-2.62,4.15,1.31,1.31,0,0,1,1.91-.61s0,.09,0,.09a1.47,1.47,0,0,0-1.54.71,7.87,7.87,0,0,0-.6,1.4c-.06.16-.33.11-.3-.06v0C334.64,161,335.89,157.83,338.1,157.33Z" style="fill:#263238"></path><path d="M380.87,245.16c-.1.18-60,12.45-60.66,12-.94-.72-4.13-61.65,5.28-75.23,2.31-3.34,11.29-8,14.6-6.5,8.57,4,14.77,14.64,18.68,20.78,2.89,4.54,6.84,12.48,10.59,20.68C375.57,230.34,381.25,244.5,380.87,245.16Z" style="fill:#5770FD"></path><path d="M337.84,196.81a9.2,9.2,0,0,0,.79,2.53,8.93,8.93,0,0,0,1.4,2.24,10.37,10.37,0,0,0-2.19-4.77Zm26.1,12.92a9.08,9.08,0,0,0,.78,2.53,8.93,8.93,0,0,0,1.4,2.24,9.42,9.42,0,0,0-.78-2.53A9.54,9.54,0,0,0,363.94,209.73ZM332.6,249.28a9.91,9.91,0,0,0,.78,2.53,9.27,9.27,0,0,0,1.41,2.24,10.1,10.1,0,0,0-2.19-4.77Zm30.24-3a9.29,9.29,0,0,0,.76,2.48l.69-.13-.05-.11A8.93,8.93,0,0,0,362.84,246.3Zm15.21-6.69a9,9,0,0,0,.78,2.53,8.75,8.75,0,0,0,1.41,2.25,9.69,9.69,0,0,0-.79-2.53A9.81,9.81,0,0,0,378.05,239.61Zm-32.64-11.83a9.18,9.18,0,0,0,.78,2.53,8.69,8.69,0,0,0,1.41,2.24,9.69,9.69,0,0,0-.79-2.53A9.54,9.54,0,0,0,345.41,227.78Zm4.33-43.24a9.15,9.15,0,0,0,.79,2.52,9.6,9.6,0,0,0,1.4,2.25,9,9,0,0,0-.78-2.53A9.27,9.27,0,0,0,349.74,184.54ZM320.22,202l.42-.17a9,9,0,0,0,2.24-1.41,8.82,8.82,0,0,0-2.52.79l0,0C320.28,201.46,320.25,201.72,320.22,202Zm41.33,30.17a9.15,9.15,0,0,0,2.52-.79,8.58,8.58,0,0,0,2.25-1.41,9.69,9.69,0,0,0-2.53.79A9,9,0,0,0,361.55,232.15Zm-41.77,22.12c0,.25,0,.48.07.7l.36-.16a9.17,9.17,0,0,0,2.25-1.4,9.1,9.1,0,0,0-2.53.78Zm19.36-10.08a9,9,0,0,0,2.53-.79,9.17,9.17,0,0,0,2.25-1.4,9.31,9.31,0,0,0-2.53.78A9.52,9.52,0,0,0,339.14,244.19Zm-18.46-16.41a9.44,9.44,0,0,0,2.53-.79,9.23,9.23,0,0,0,2.24-1.4,9.14,9.14,0,0,0-2.52.78A9.33,9.33,0,0,0,320.68,227.78Zm22.93-16.41a9,9,0,0,0,2.53-.79,9.17,9.17,0,0,0,2.25-1.4,9.1,9.1,0,0,0-2.53.78A9.33,9.33,0,0,0,343.61,211.37Zm25.95,32.12a9.72,9.72,0,0,0,1.23-2.34,9.32,9.32,0,0,0,.59-2.58,9,9,0,0,0-1.23,2.34A9.16,9.16,0,0,0,369.56,243.49Zm-32.63-60.06a9.27,9.27,0,0,0,1.23-2.35,9.17,9.17,0,0,0,.59-2.57,10.24,10.24,0,0,0-1.82,4.92Zm-9.56,29.83a9.08,9.08,0,0,0,1.24-2.34,9.24,9.24,0,0,0,.59-2.58,10.39,10.39,0,0,0-1.83,4.92Zm21.8,38.45.61-.12c.17-.34.31-.69.45-1a9.32,9.32,0,0,0,.59-2.58,9.38,9.38,0,0,0-1.23,2.34A11.28,11.28,0,0,0,349.17,251.71ZM332.3,236.5a9.6,9.6,0,0,0,1.23-2.35,9.32,9.32,0,0,0,.59-2.58,9.72,9.72,0,0,0-1.23,2.34A9.31,9.31,0,0,0,332.3,236.5ZM354.46,223a9.41,9.41,0,0,0,1.24-2.34,9.31,9.31,0,0,0,.59-2.59,9.44,9.44,0,0,0-1.23,2.35A9.25,9.25,0,0,0,354.46,223Zm15.69,0a9.36,9.36,0,0,0,2.34,1.23l.25.08-.37-.84A8.21,8.21,0,0,0,370.15,223.05Zm-17.23,15.24a9.15,9.15,0,0,0,2.33,1.23,9.31,9.31,0,0,0,2.59.59,9.6,9.6,0,0,0-2.35-1.23A9.17,9.17,0,0,0,352.92,238.29Zm.5-37.71a9.41,9.41,0,0,0,2.34,1.24,9.32,9.32,0,0,0,2.58.59,9.15,9.15,0,0,0-2.33-1.23A9.32,9.32,0,0,0,353.42,200.58Zm-30.48,42.7a8.9,8.9,0,0,0,2.34,1.23,9.24,9.24,0,0,0,2.58.59,9.6,9.6,0,0,0-2.35-1.23A9.17,9.17,0,0,0,322.94,243.28Zm10.27-23.53a8.9,8.9,0,0,0,2.34,1.23,9.24,9.24,0,0,0,2.58.59,9.6,9.6,0,0,0-2.35-1.23A9.17,9.17,0,0,0,333.21,219.75Zm-9.71-31.59a10.05,10.05,0,0,0,4.93,1.82,9.72,9.72,0,0,0-2.34-1.23A9.31,9.31,0,0,0,323.5,188.16Z" style="opacity:0.1"></path><path d="M331.16,193.33c-7.49,14.19-22.73,40-34,42-11.92,2.08-29.08-9.37-36.28-12.72-3.06-1.42,11.29-21.42,14.83-20.72s14.74,8.42,17.43,8.43,17.89-16.49,28.67-25.47C334.51,174.26,337.24,181.81,331.16,193.33Z" style="fill:#ad6359"></path><path d="M241,184.31c-3.1,4.69,9.5,9.18,9.5,9.18A5.67,5.67,0,0,0,247,195c-1.61,1.68.32,4.93.32,4.93a6.93,6.93,0,0,0-3.44,2.22c-1.38,1.76.1,5.31.1,5.31a6.1,6.1,0,0,0-1.8,3.86c-.16,3.91,4.77,7.28,7.89,9.45s16.61,4.67,18.24,4.1l10.4-21.33s-5.61-7.9-13.73-12.15C261.63,189.66,242.67,181.84,241,184.31Z" style="fill:#ad6359"></path><path d="M250.89,193.27c4,1,7.58,3.06,11.24,5,.08,0,0,.17-.07.13-3.61-1.93-7.56-3.12-11.24-4.9A.1.1,0,0,1,250.89,193.27Z" style="fill:#263238"></path><path d="M247.59,199.75a10.9,10.9,0,0,1,2.54,1.25c.86.51,1.72,1,2.57,1.57,1.7,1.07,3.38,2.18,5,3.34.07.05,0,.17-.07.12-1.69-1.06-3.41-2.1-5.15-3.09-.87-.5-1.74-1-2.62-1.47a13,13,0,0,1-2.42-1.48A.14.14,0,0,1,247.59,199.75Z" style="fill:#263238"></path><path d="M244.07,207.54a7.68,7.68,0,0,1,2.23,1.25c.76.51,1.53,1,2.3,1.5,1.54,1,3.08,2,4.65,2.92.08,0,0,.17-.06.13-1.61-1-3.22-1.87-4.82-2.83-.78-.47-1.57-.94-2.34-1.42a6.89,6.89,0,0,1-2-1.48S244,207.53,244.07,207.54Z" style="fill:#263238"></path><path d="M281.1,203.48l-13.78,26s22.59,11.21,33.82,5.83,26.89-32.09,31.74-44.06-.64-15.89-10.68-7.38-27.72,24.85-28.44,25.2S281.1,203.48,281.1,203.48Z" style="fill:#5770FD"></path><path d="M323.5,188.16a10.05,10.05,0,0,0,4.93,1.82,9.72,9.72,0,0,0-2.34-1.23A9.31,9.31,0,0,0,323.5,188.16Zm-32.05,37.19a10.1,10.1,0,0,0,4.93,1.83,10.48,10.48,0,0,0-4.93-1.83Zm-12-18.78a11.21,11.21,0,0,0,1.07.47,9.31,9.31,0,0,0,2.59.59,9.27,9.27,0,0,0-2.35-1.23c-.34-.12-.68-.24-1-.33Zm26.37,3.06a10.22,10.22,0,0,0,1.82-4.93,9.78,9.78,0,0,0-1.23,2.35A9.24,9.24,0,0,0,305.82,209.63Zm-4,25.36c.27-.14.55-.3.83-.47l.15-.37a9.32,9.32,0,0,0,.59-2.58,9.72,9.72,0,0,0-1.23,2.34C302,234.27,301.89,234.62,301.79,235Zm-19.22-13.9a9.54,9.54,0,0,0,1.23-2.34,9.32,9.32,0,0,0,.59-2.58,9.54,9.54,0,0,0-1.23,2.34A9.24,9.24,0,0,0,282.57,221.09ZM305,222.74a9.33,9.33,0,0,0,2.53-.79,9.48,9.48,0,0,0,2.25-1.4,9.31,9.31,0,0,0-2.53.78A9.52,9.52,0,0,0,305,222.74Zm-36.07,3.79a11.25,11.25,0,0,0,1.74-.63,9.81,9.81,0,0,0,2.25-1.4,9.29,9.29,0,0,0-2.53.77c-.38.19-.75.38-1.11.6Zm49.22-23.94a9.42,9.42,0,0,0,2.53-.78,9,9,0,0,0,2.24-1.41,8.82,8.82,0,0,0-2.52.79A9,9,0,0,0,318.11,202.59Zm-2.68,10.47a9.53,9.53,0,0,0,.78,2.53,9.27,9.27,0,0,0,1.41,2.24,10.1,10.1,0,0,0-2.19-4.77Zm-22.73-.94a10.1,10.1,0,0,0,2.19,4.77,10.37,10.37,0,0,0-2.19-4.77Zm-9.4,17.43a9,9,0,0,0,.78,2.53,8.69,8.69,0,0,0,1.41,2.24,10.37,10.37,0,0,0-2.19-4.77Z" style="opacity:0.1"></path><path d="M280,218.45c.92-1.88,1.89-3.73,2.86-5.59.46-.89.92-1.79,1.41-2.67s1-1.95,1.6-2.85a.06.06,0,0,1,.1,0c-.35,1-.87,2-1.3,3s-.83,1.83-1.25,2.74c-.89,1.89-1.78,3.79-2.71,5.66-1.87,3.76-3.83,7.45-5.85,11.12a.08.08,0,0,1-.14-.06C276.41,226,278.15,222.21,280,218.45Z" style="fill:#263238"></path><path d="M319.19,216c1.31-2.17,6.21-10.88,7.09-12.5,1.78-3.28,3.51-6.57,5.29-9.85,0,0,.07,0,.05,0-.8,2.1-1.71,4.14-2.67,6.16.09-.13.17-.26.27-.38.57-.77,1.16-1.52,1.76-2.27,0,0,.11,0,.08.06-.53.82-1.06,1.65-1.63,2.44-.36.5-.74,1-1.12,1.48-.44.87-.89,1.74-1.35,2.6-.89,1.66-5.73,10.38-7.63,12.32C319.26,216.19,319.14,216.12,319.19,216Z" style="fill:#263238"></path></g><g id="freepik--Sign--inject-7"><rect x="237.68" y="53.33" width="188.77" height="40.76" style="fill:#5770FD"></rect><path d="M264.28,76.28a.85.85,0,0,1,1.19-.12,5.3,5.3,0,0,0,3.12,1.26,3.6,3.6,0,0,0,2-.6,1.47,1.47,0,0,0,.7-1.18.91.91,0,0,0-.15-.52,1.51,1.51,0,0,0-.49-.49,6.5,6.5,0,0,0-2.23-.77h0a8.74,8.74,0,0,1-2.1-.63A3.57,3.57,0,0,1,264.8,72a2.57,2.57,0,0,1-.37-1.34,3,3,0,0,1,1.3-2.38,4.79,4.79,0,0,1,2.82-.87,6.37,6.37,0,0,1,3.56,1.31.84.84,0,0,1-.93,1.4,4.68,4.68,0,0,0-2.63-1,3.07,3.07,0,0,0-1.82.55,1.3,1.3,0,0,0-.62,1,.79.79,0,0,0,.11.45,1.63,1.63,0,0,0,.44.43,5.88,5.88,0,0,0,2,.72h0a9.52,9.52,0,0,1,2.26.68,3.93,3.93,0,0,1,1.63,1.35,2.74,2.74,0,0,1,.39,1.39,3.15,3.15,0,0,1-1.41,2.53,5,5,0,0,1-3,.93,7.1,7.1,0,0,1-4.18-1.63A.86.86,0,0,1,264.28,76.28Z" style="fill:#fff"></path><path d="M275.52,78.22V68.59a.88.88,0,0,1,.9-.89h5.33a.91.91,0,0,1,.9.89.93.93,0,0,1-.9.92h-4.42v3h3.8a.92.92,0,0,1,.9.9.9.9,0,0,1-.9.91h-3.8v3h4.42a.91.91,0,0,1,0,1.81h-5.28s0,0,0,0v0A.9.9,0,0,1,275.52,78.22Z" style="fill:#fff"></path><path d="M285.19,78.22V68.59a.91.91,0,0,1,1.81,0v8.72h4.42a.91.91,0,0,1,0,1.81h-5.33A.9.9,0,0,1,285.19,78.22Z" style="fill:#fff"></path><path d="M294.38,78.22V68.59a.89.89,0,0,1,.9-.89h5.33a.91.91,0,0,1,0,1.81h-4.42v3H300a.92.92,0,0,1,.9.9.9.9,0,0,1-.9.91h-3.8v3.92a.91.91,0,0,1-.91.9A.9.9,0,0,1,294.38,78.22Z" style="fill:#fff"></path><path d="M308.63,73.24a6,6,0,0,1,6-5.87,6.1,6.1,0,0,1,3.77,1.27,1,1,0,0,1,.16,1.31,1,1,0,0,1-1.3.18,4.07,4.07,0,0,0-2.63-.9,4.29,4.29,0,0,0-2.93,1.18,3.95,3.95,0,0,0,0,5.67,4.29,4.29,0,0,0,2.93,1.18,4.11,4.11,0,0,0,2.63-.9,1,1,0,0,1,1.3.18,1,1,0,0,1-.16,1.3,6.1,6.1,0,0,1-3.77,1.28A6,6,0,0,1,308.63,73.24Z" style="fill:#fff"></path><path d="M321.72,78.22V68.59a.88.88,0,0,1,.9-.89.9.9,0,0,1,.91.89v3.92h4.22V68.59a.91.91,0,0,1,1.81,0v9.63a.91.91,0,0,1-1.81,0V74.3h-4.22v3.92a.9.9,0,0,1-.91.9A.89.89,0,0,1,321.72,78.22Z" style="fill:#fff"></path><path d="M333.28,78.22V68.59a.88.88,0,0,1,.9-.89h5.33a.9.9,0,0,1,.9.89.92.92,0,0,1-.9.92h-4.42v3h3.8a.92.92,0,0,1,.9.9.9.9,0,0,1-.9.91h-3.8v3h4.42a.91.91,0,0,1,0,1.81h-5.28s0,0,0,0l0,0A.9.9,0,0,1,333.28,78.22Z" style="fill:#fff"></path><path d="M342.45,73.24a6,6,0,0,1,6-5.87,6.12,6.12,0,0,1,3.77,1.27,1,1,0,0,1,.16,1.31,1,1,0,0,1-1.31.18,4,4,0,0,0-2.62-.9,4.32,4.32,0,0,0-2.94,1.18,4,4,0,0,0,0,5.67,4.32,4.32,0,0,0,2.94,1.18,4.06,4.06,0,0,0,2.62-.9,1,1,0,0,1,1.31.18,1,1,0,0,1-.16,1.3,6.13,6.13,0,0,1-3.77,1.28A6,6,0,0,1,342.45,73.24Z" style="fill:#fff"></path><path d="M355.53,78.22V68.68a.9.9,0,0,1,1.8,0v4.68l5.28-5.3a.89.89,0,0,1,1.28,0,.92.92,0,0,1,0,1.27L360.3,72.9l3.62,4.75a.86.86,0,0,1-.13,1.25.82.82,0,0,1-.57.22.89.89,0,0,1-.67-.33L359,74.17l-1.7,1.73v2.32a.9.9,0,0,1-1.8,0Z" style="fill:#fff"></path><path d="M375.39,69.12a6,6,0,0,1,0,8.25,5.37,5.37,0,0,1-3.9,1.75,5.52,5.52,0,0,1-4-1.75,6.09,6.09,0,0,1,0-8.25,5.44,5.44,0,0,1,4-1.75A5.29,5.29,0,0,1,375.39,69.12Zm-.22,4.12a4.25,4.25,0,0,0-1.1-2.85,3.52,3.52,0,0,0-5.22,0,4.12,4.12,0,0,0-1.11,2.85,4.06,4.06,0,0,0,1.11,2.84,3.48,3.48,0,0,0,5.22,0A4.19,4.19,0,0,0,375.17,73.24Z" style="fill:#fff"></path><path d="M384.25,79.12a4.71,4.71,0,0,1-4.72-4.72V68.59a.88.88,0,0,1,.9-.89.9.9,0,0,1,.91.89V74.4a2.91,2.91,0,1,0,5.81,0V68.59a.9.9,0,0,1,.91-.89.88.88,0,0,1,.9.89V74.4A4.71,4.71,0,0,1,384.25,79.12Z" style="fill:#fff"></path><path d="M399.29,69.51h-2.6v8.71a.9.9,0,1,1-1.79,0V69.51h-2.58a.91.91,0,0,1-.9-.92.88.88,0,0,1,.9-.89h7a.89.89,0,0,1,.89.89A.93.93,0,0,1,399.29,69.51Z" style="fill:#fff"></path><circle cx="253.22" cy="73.72" r="2.35" style="fill:#fff"></circle><circle cx="410.9" cy="73.72" r="2.35" style="fill:#fff"></circle></g></svg>